<?xml version="1.0" encoding="utf-8"?>
<!-- Generator: Adobe Illustrator 27.6.1, SVG Export Plug-In . SVG Version: 6.00 Build 0)  -->
<svg version="1.1" id="Layer_1" xmlns="http://www.w3.org/2000/svg" xmlns:xlink="http://www.w3.org/1999/xlink" x="0px" y="0px"
	 viewBox="0 0 130 72" style="enable-background:new 0 0 130 72;" xml:space="preserve">
<style type="text/css">
	.st0{fill:#548D69;}
</style>
<g>
	<path class="st0" d="M-36.8-98.27c2.38-0.68,3.8-1.9,4.48-2.55c1.46-1.36,3.53-4.04,3.53-8.97c0-3.02-0.88-6.25-3.02-8.46
		c-0.78-0.82-1.56-1.29-1.94-1.53c-2.62-1.63-5.13-1.9-8.12-1.9h-29.43v23.98h28.65C-39.55-97.69-38.29-97.82-36.8-98.27z
		 M-65.31-117.42h23.21c1.87,0,2.62,0.14,3.5,0.44c0.82,0.31,1.39,0.71,1.63,0.92c2.24,1.9,2.21,5.54,2.21,6.11
		c0,4.72-1.8,6.79-3.91,7.54c-1.46,0.54-3.36,0.48-3.7,0.48h-22.94V-117.42z"/>
	<path class="st0" d="M-7.26-106.72h1.12c2.11,0,4.55-0.07,6.42-1.19c0.82-0.51,1.32-1.09,1.56-1.36c0.54-0.61,0.78-1.12,0.92-1.46
		c0.65-1.39,0.68-2.92,0.68-3.43c0-2.11-0.61-3.57-1.05-4.28c-1.32-2.28-3.67-3.02-6.15-3.19c-0.61-0.03-1.22-0.03-1.83-0.03h-7.57
		v23.98h5.91V-106.72z M-7.26-117.53h1.19c0.82,0,1.09,0.03,1.49,0.17c1.94,0.58,2.04,2.68,2.04,3.19c0,0.58-0.03,2.21-1.66,2.89
		c-0.82,0.34-2.04,0.34-2.92,0.34h-0.14V-117.53z"/>
	<rect x="-24.59" y="-121.67" class="st0" width="6.01" height="23.98"/>
	<polygon class="st0" points="43.91,-101.97 12.42,-101.97 12.42,-107.68 42.69,-107.68 42.69,-111.96 12.42,-111.96 12.42,-117.36 
		43.23,-117.36 43.23,-121.67 6.41,-121.67 6.41,-97.69 43.91,-97.69 	"/>
	<path class="st0" d="M-68.83-134.59h1.77c0.7,0,1.05-0.06,1.33-0.32c0.44-0.4,0.46-1.05,0.46-2.17v-2.55
		c0-0.57,0.04-1.31-0.34-1.79c-0.46-0.59-1.35-0.51-1.49-0.51h-3.47v13.45h1.73V-134.59z M-68.81-140.31h1.09
		c0.55,0,0.67,0.17,0.67,0.67v2.86c0,0.46-0.15,0.59-0.63,0.59h-1.12V-140.31z"/>
	<path class="st0" d="M-62.68-128.53c0.46,0.17,0.97,0.17,1.12,0.17c0.4,0,2.15,0.02,2.72-1.56c0.19-0.51,0.23-1.07,0.23-1.58v-6.4
		c0-1.51-0.02-2.21-0.4-2.88c-0.08-0.15-0.27-0.46-0.61-0.72c-0.67-0.53-1.47-0.53-1.75-0.53c-0.95,0-1.52,0.34-1.85,0.59
		c-1.05,0.8-1.05,1.96-1.05,3.16v6.71c0,0.76,0.02,1.01,0.13,1.41C-63.84-129.12-63.04-128.67-62.68-128.53z M-62.05-140.31
		c0.25-0.17,0.55-0.19,0.65-0.19c0.48,0,0.7,0.23,0.82,0.4c0.21,0.32,0.21,0.84,0.21,1.66v6.78c0,0.8,0.06,1.83-1.09,1.83
		c-0.91,0-1.03-0.69-1.03-1.41v-7.2C-62.49-139.45-62.53-140-62.05-140.31z"/>
	<path class="st0" d="M-54.7-128.25c0.59,0,0.95-0.11,1.18-0.21c1.5-0.69,1.49-2.71,1.49-2.99c0-0.78-0.11-1.79-1.05-3.26
		c-0.19-0.3-0.38-0.59-0.59-0.88c-0.27-0.4-0.53-0.78-0.78-1.18c-0.59-0.93-0.9-1.56-0.9-2.69c0-0.63,0.02-1.37,0.88-1.37
		c0.74,0,0.69,0.76,0.7,0.91v2.38h1.62v-2.38c0-0.53-0.06-0.76-0.13-1.01c-0.42-1.31-1.77-1.3-2.13-1.3c-0.76,0-1.24,0.19-1.52,0.36
		c-0.55,0.32-1.2,1.11-1.2,2.59c0,1.56,0.74,2.71,1.03,3.16c0.51,0.86,1.12,1.64,1.62,2.51c0.5,0.84,0.65,1.37,0.65,2.34
		c0,0.61,0.02,1.56-0.86,1.58c-0.29,0-0.46-0.11-0.53-0.17c-0.29-0.19-0.38-0.48-0.38-1.12v-2.46h-1.64v2.23
		c0,0.78,0.04,1.51,0.59,2.13C-56.38-128.71-55.78-128.25-54.7-128.25z"/>
	<polygon class="st0" points="-49.27,-128.5 -47.46,-128.5 -47.46,-140.36 -45.36,-140.36 -45.36,-141.95 -51.31,-141.95 
		-51.31,-140.36 -49.27,-140.36 	"/>
	<path class="st0" d="M-43.52-128.78c0.57,0.48,1.22,0.5,1.49,0.5c1.01,0,1.41-0.5,1.66-0.84l0.17,0.63h1.07v-7.16h-2.84v1.64h1.09
		v3.05c0,0.36-0.02,0.82-0.38,1.07c-0.21,0.13-0.42,0.13-0.51,0.13c-0.46,0.02-0.67-0.27-0.74-0.42c-0.11-0.23-0.13-0.65-0.13-1.2
		v-7.73c0-0.44-0.04-1.05,0.36-1.33c0.1-0.08,0.27-0.15,0.53-0.15c0.8-0.02,0.78,0.72,0.8,0.93c0,0.13,0.02,0.29,0.02,0.42v1.52
		h1.64v-1.41c0-1.14-0.08-1.58-0.44-2.08c-0.63-0.88-1.62-0.88-1.96-0.88c-1.68,0-2.27,1.03-2.48,1.66
		c-0.19,0.53-0.23,1.03-0.23,2.13v6.74C-44.41-130.55-44.37-129.51-43.52-128.78z"/>
	<path class="st0" d="M-35.88-134.73h0.59l1.49,6.23h1.81l-1.64-6.44c0.99-0.25,1.28-0.78,1.28-2.42v-1.98
		c0-1.22-0.13-1.73-0.53-2.13c-0.3-0.3-0.82-0.48-1.5-0.48h-3.26v13.45h1.77V-134.73z M-35.86-140.33h0.97
		c0.3,0,0.48,0.04,0.57,0.11c0.08,0.06,0.13,0.23,0.15,0.34c0.02,0.13,0.04,0.4,0.04,0.78v1.31c0,1.2-0.15,1.43-0.95,1.43h-0.78
		V-140.33z"/>
	<path class="st0" d="M-29.53-130.97h2.02l0.34,2.48h1.73l-2.08-13.45h-2.15l-1.9,13.45h1.73L-29.53-130.97z M-28.6-139.6l0.86,6.99
		h-1.6L-28.6-139.6z"/>
	<path class="st0" d="M-19.38-129.72c0.06-0.25,0.1-0.55,0.1-1.1v-8.95c0-0.65-0.02-1.3-0.57-1.77c-0.53-0.46-1.31-0.4-1.49-0.4
		h-3.26v13.45h3.41C-20.79-128.5-19.67-128.42-19.38-129.72z M-21.65-130.15h-1.18v-10.15h1.03c0.15,0,0.63-0.02,0.7,0.53
		c0.02,0.13,0.02,0.27,0.02,0.4v8.48C-21.08-130.27-21.25-130.15-21.65-130.15z"/>
	<path class="st0" d="M-15.1-128.29c0.53,0,2.23-0.1,2.72-1.87c0.17-0.63,0.17-1.49,0.17-1.6v-10.19h-1.75v10.29
		c0,0.9-0.02,1.37-0.4,1.7c-0.25,0.21-0.57,0.21-0.69,0.21c-1.09,0-1.07-1.03-1.07-1.79v-10.4h-1.73v10.5c0,0.82,0.08,1.2,0.23,1.58
		C-17.06-128.38-15.57-128.29-15.1-128.29z"/>
	<path class="st0" d="M-9.3-130.97h2.02l0.34,2.48h1.73l-2.08-13.45h-2.15l-1.9,13.45h1.73L-9.3-130.97z M-8.37-139.6l0.86,6.99
		h-1.6L-8.37-139.6z"/>
	<polygon class="st0" points="-2.87,-128.5 -1.06,-128.5 -1.06,-140.36 1.04,-140.36 1.04,-141.95 -4.9,-141.95 -4.9,-140.36 
		-2.87,-140.36 	"/>
	<polygon class="st0" points="6.47,-130.19 3.84,-130.19 3.84,-134.65 6.18,-134.65 6.18,-136.33 3.82,-136.33 3.82,-140.27 
		6.47,-140.27 6.47,-141.95 2.03,-141.95 2.03,-128.5 6.47,-128.5 	"/>
	<path class="st0" d="M13.52-128.25c0.59,0,0.95-0.11,1.18-0.21c1.5-0.69,1.49-2.71,1.49-2.99c0-0.78-0.11-1.79-1.05-3.26
		c-0.19-0.3-0.38-0.59-0.59-0.88c-0.27-0.4-0.53-0.78-0.78-1.18c-0.59-0.93-0.9-1.56-0.9-2.69c0-0.63,0.02-1.37,0.88-1.37
		c0.74,0,0.69,0.76,0.7,0.91v2.38h1.62v-2.38c0-0.53-0.06-0.76-0.13-1.01c-0.42-1.31-1.77-1.3-2.13-1.3c-0.76,0-1.24,0.19-1.52,0.36
		c-0.55,0.32-1.2,1.11-1.2,2.59c0,1.56,0.74,2.71,1.03,3.16c0.51,0.86,1.12,1.64,1.62,2.51c0.5,0.84,0.65,1.37,0.65,2.34
		c0,0.61,0.02,1.56-0.86,1.58c-0.29,0-0.46-0.11-0.53-0.17c-0.29-0.19-0.38-0.48-0.38-1.12v-2.46h-1.64v2.23
		c0,0.78,0.04,1.51,0.59,2.13C11.84-128.71,12.43-128.25,13.52-128.25z"/>
	<polygon class="st0" points="18.95,-128.5 20.76,-128.5 20.76,-140.36 22.85,-140.36 22.85,-141.95 16.91,-141.95 16.91,-140.36 
		18.95,-140.36 	"/>
	<path class="st0" d="M26.55-128.29c0.53,0,2.23-0.1,2.72-1.87c0.17-0.63,0.17-1.49,0.17-1.6v-10.19h-1.75v10.29
		c0,0.9-0.02,1.37-0.4,1.7c-0.25,0.21-0.57,0.21-0.69,0.21c-1.09,0-1.07-1.03-1.07-1.79v-10.4H23.8v10.5c0,0.82,0.08,1.2,0.23,1.58
		C24.58-128.38,26.07-128.29,26.55-128.29z"/>
	<path class="st0" d="M36.15-129.72c0.06-0.25,0.1-0.55,0.1-1.1v-8.95c0-0.65-0.02-1.3-0.57-1.77c-0.53-0.46-1.31-0.4-1.49-0.4
		h-3.26v13.45h3.41C34.74-128.5,35.86-128.42,36.15-129.72z M33.88-130.15H32.7v-10.15h1.03c0.15,0,0.63-0.02,0.7,0.53
		c0.02,0.13,0.02,0.27,0.02,0.4v8.48C34.45-130.27,34.28-130.15,33.88-130.15z"/>
	<rect x="37.63" y="-141.95" class="st0" width="1.75" height="13.45"/>
	<polygon class="st0" points="45.35,-130.19 42.72,-130.19 42.72,-134.65 45.06,-134.65 45.06,-136.33 42.7,-136.33 42.7,-140.27 
		45.35,-140.27 45.35,-141.95 40.91,-141.95 40.91,-128.5 45.35,-128.5 	"/>
	<path class="st0" d="M48.83-128.25c0.59,0,0.95-0.11,1.18-0.21c1.5-0.69,1.49-2.71,1.49-2.99c0-0.78-0.11-1.79-1.05-3.26
		c-0.19-0.3-0.38-0.59-0.59-0.88c-0.27-0.4-0.53-0.78-0.78-1.18c-0.59-0.93-0.9-1.56-0.9-2.69c0-0.63,0.02-1.37,0.88-1.37
		c0.74,0,0.69,0.76,0.7,0.91v2.38h1.62v-2.38c0-0.53-0.06-0.76-0.13-1.01c-0.42-1.31-1.77-1.3-2.13-1.3c-0.76,0-1.24,0.19-1.52,0.36
		c-0.55,0.32-1.2,1.11-1.2,2.59c0,1.56,0.74,2.71,1.03,3.16c0.51,0.86,1.12,1.64,1.62,2.51c0.5,0.84,0.65,1.37,0.65,2.34
		c0,0.61,0.02,1.56-0.86,1.58c-0.29,0-0.46-0.11-0.53-0.17c-0.29-0.19-0.38-0.48-0.38-1.12v-2.46h-1.64v2.23
		c0,0.78,0.04,1.51,0.59,2.13C47.16-128.71,47.75-128.25,48.83-128.25z"/>
	<path class="st0" d="M55.81-145.89H-74.07v20.08v0.9v30.03v0.9v20.08h64.58v-20.08h60.06v-30.93h5.25V-145.89z M-10.4-74.8h-62.77
		v-19.18h62.77V-74.8z M49.66-94.88H-9.49h-63.68v-30.03H49.66V-94.88z M54.91-125.81h-4.34H-73.17v-19.18H54.91V-125.81z"/>
	<polygon class="st0" points="-66.13,-79.27 -68.76,-79.27 -68.76,-83.73 -66.42,-83.73 -66.42,-85.41 -68.78,-85.41 -68.78,-89.35 
		-66.13,-89.35 -66.13,-91.03 -70.57,-91.03 -70.57,-77.58 -66.13,-77.58 	"/>
	<path class="st0" d="M-62.65-77.33c0.59,0,0.95-0.11,1.18-0.21c1.5-0.69,1.49-2.71,1.49-2.99c0-0.78-0.11-1.79-1.05-3.26
		c-0.19-0.3-0.38-0.59-0.59-0.88c-0.27-0.4-0.53-0.78-0.78-1.18c-0.59-0.93-0.9-1.56-0.9-2.69c0-0.63,0.02-1.37,0.88-1.37
		c0.74,0,0.69,0.76,0.7,0.91v2.38h1.62v-2.38c0-0.53-0.06-0.76-0.13-1.01c-0.42-1.31-1.77-1.3-2.13-1.3c-0.76,0-1.24,0.19-1.52,0.36
		c-0.55,0.32-1.2,1.11-1.2,2.59c0,1.56,0.74,2.71,1.03,3.16c0.51,0.86,1.12,1.64,1.62,2.51c0.5,0.84,0.65,1.37,0.65,2.34
		c0,0.61,0.02,1.56-0.86,1.58c-0.29,0-0.46-0.11-0.53-0.17c-0.29-0.19-0.38-0.48-0.38-1.12v-2.46h-1.64v2.23
		c0,0.78,0.04,1.51,0.59,2.13C-64.32-77.79-63.73-77.33-62.65-77.33z"/>
	<polygon class="st0" points="-54.23,-79.27 -56.86,-79.27 -56.86,-83.73 -54.51,-83.73 -54.51,-85.41 -56.88,-85.41 -56.88,-89.35 
		-54.23,-89.35 -54.23,-91.03 -58.67,-91.03 -58.67,-77.58 -54.23,-77.58 	"/>
	<polygon class="st0" points="-48.38,-79.23 -51.31,-79.23 -51.31,-91.03 -53.08,-91.03 -53.08,-77.58 -48.38,-77.58 	"/>
	<polygon class="st0" points="-46.78,-77.58 -45.56,-81.63 -44.55,-77.58 -42.95,-77.58 -44.7,-83.1 -43.12,-87.79 -44.65,-87.79 
		-45.54,-84.17 -46.47,-87.79 -48,-87.79 -46.42,-83.06 -48.26,-77.58 	"/>
	<rect x="-38.72" y="-83.92" class="st0" width="3.37" height="1.6"/>
	<rect x="-30.59" y="-91.03" class="st0" width="1.75" height="13.45"/>
	<path class="st0" d="M-25.6-83.67h1.77c0.7,0,1.05-0.06,1.33-0.32c0.44-0.4,0.46-1.05,0.46-2.17v-2.55c0-0.57,0.04-1.31-0.34-1.79
		c-0.46-0.59-1.35-0.51-1.49-0.51h-3.47v13.45h1.73V-83.67z M-25.58-89.39h1.09c0.55,0,0.67,0.17,0.67,0.67v2.86
		c0,0.46-0.15,0.59-0.63,0.59h-1.12V-89.39z"/>
	<polygon class="st0" points="-16.24,-79.23 -19.18,-79.23 -19.18,-91.03 -20.95,-91.03 -20.95,-77.58 -16.24,-77.58 	"/>
</g>
<g>
	<path class="st0" d="M40.43,26.35c-2.59-1.62-5.08-1.88-8.04-1.88H3.24v23.76h28.38c3.06,0,4.31-0.13,5.79-0.57
		c2.36-0.67,3.77-1.88,4.44-2.52c1.45-1.35,3.5-4,3.5-8.88c0-2.99-0.87-6.19-2.99-8.38C41.58,27.05,40.8,26.58,40.43,26.35z
		 M39.42,36.07c0,4.68-1.78,6.73-3.87,7.47c-1.45,0.54-3.33,0.47-3.67,0.47H9.16V28.67h22.99c1.85,0,2.59,0.13,3.47,0.44
		c0.81,0.3,1.38,0.71,1.62,0.91C39.46,31.9,39.42,35.5,39.42,36.07z"/>
	<path class="st0" d="M58.84,24.5c-0.61-0.03-1.21-0.03-1.82-0.03h-7.5v23.76h5.85v-8.95h1.11c2.09,0,4.51-0.07,6.36-1.18
		c0.81-0.5,1.31-1.08,1.55-1.35c0.54-0.61,0.77-1.11,0.91-1.45c0.64-1.38,0.67-2.89,0.67-3.4c0-2.09-0.61-3.53-1.04-4.24
		C63.62,25.41,61.29,24.67,58.84,24.5z M58.4,34.76c-0.81,0.34-2.02,0.34-2.89,0.34h-0.13v-6.53h1.18c0.81,0,1.08,0.03,1.48,0.17
		c1.92,0.57,2.02,2.66,2.02,3.16C60.05,32.47,60.01,34.09,58.4,34.76z"/>
	<rect x="69.03" y="24.46" class="st0" width="5.96" height="23.76"/>
	<polygon class="st0" points="116.68,28.74 116.68,24.46 80.2,24.46 80.2,48.22 117.35,48.22 117.35,43.98 86.16,43.98 86.16,38.33 
		116.14,38.33 116.14,34.09 86.16,34.09 86.16,28.74 	"/>
	<path class="st0" d="M7.39,4.38H3.96V17.7h1.72v-6.04h1.75c0.7,0,1.04-0.06,1.32-0.32c0.43-0.4,0.45-1.04,0.45-2.15V6.66
		c0-0.57,0.04-1.3-0.34-1.77C8.41,4.31,7.52,4.38,7.39,4.38z M7.43,9.49c0,0.45-0.15,0.58-0.62,0.58H5.69V6h1.08
		c0.55,0,0.66,0.17,0.66,0.66V9.49z"/>
	<path class="st0" d="M14.8,4.81c-0.66-0.53-1.45-0.53-1.74-0.53c-0.94,0-1.51,0.34-1.83,0.59C10.2,5.66,10.2,6.82,10.2,8v6.64
		c0,0.75,0.02,1,0.13,1.4c0.28,1.04,1.08,1.49,1.43,1.62c0.45,0.17,0.96,0.17,1.11,0.17c0.4,0,2.13,0.02,2.7-1.55
		c0.19-0.51,0.23-1.06,0.23-1.57V8.38c0-1.49-0.02-2.19-0.4-2.85C15.33,5.38,15.14,5.08,14.8,4.81z M12.97,16.38
		c-0.91,0-1.02-0.68-1.02-1.4V7.85c0-1-0.04-1.55,0.43-1.85c0.25-0.17,0.55-0.19,0.64-0.19c0.47,0,0.7,0.23,0.81,0.4
		c0.21,0.32,0.21,0.83,0.21,1.64v6.72C14.05,15.36,14.11,16.38,12.97,16.38z"/>
	<path class="st0" d="M20.69,10.68c-0.26-0.4-0.53-0.77-0.77-1.17c-0.58-0.92-0.89-1.55-0.89-2.66c0-0.62,0.02-1.36,0.87-1.36
		c0.74,0,0.68,0.75,0.7,0.91v2.36h1.6V6.4c0-0.53-0.06-0.75-0.13-1c-0.42-1.3-1.75-1.28-2.11-1.28c-0.75,0-1.23,0.19-1.51,0.36
		c-0.55,0.32-1.19,1.09-1.19,2.57c0,1.55,0.74,2.68,1.02,3.13c0.51,0.85,1.11,1.62,1.6,2.49c0.49,0.83,0.64,1.36,0.64,2.32
		c0,0.6,0.02,1.55-0.85,1.57c-0.28,0-0.45-0.11-0.53-0.17c-0.28-0.19-0.38-0.47-0.38-1.11v-2.43h-1.62v2.21
		c0,0.77,0.04,1.49,0.58,2.11c0.28,0.34,0.87,0.79,1.94,0.79c0.59,0,0.94-0.11,1.17-0.21c1.49-0.68,1.47-2.68,1.47-2.96
		c0-0.77-0.11-1.77-1.04-3.23C21.09,11.25,20.9,10.97,20.69,10.68z"/>
	<rect x="23.32" y="11.42" class="st0" width="3.34" height="1.59"/>
	<path class="st0" d="M30.32,12.23h1.08v3.02c0,0.36-0.02,0.81-0.38,1.06c-0.21,0.13-0.42,0.13-0.51,0.13
		c-0.45,0.02-0.66-0.26-0.74-0.42c-0.11-0.23-0.13-0.64-0.13-1.19V7.17c0-0.43-0.04-1.04,0.36-1.32c0.09-0.08,0.26-0.15,0.53-0.15
		c0.79-0.02,0.77,0.72,0.79,0.92c0,0.13,0.02,0.28,0.02,0.42v1.51h1.62v-1.4c0-1.13-0.08-1.57-0.43-2.06
		c-0.62-0.87-1.6-0.87-1.94-0.87c-1.66,0-2.25,1.02-2.45,1.64C27.94,6.4,27.9,6.89,27.9,7.99v6.68c0,1,0.04,2.04,0.89,2.76
		c0.57,0.47,1.21,0.49,1.47,0.49c1,0,1.4-0.49,1.64-0.83l0.17,0.62h1.06v-7.09h-2.81V12.23z"/>
	<path class="st0" d="M39.85,8.93V6.97c0-1.21-0.13-1.72-0.53-2.11c-0.3-0.3-0.81-0.47-1.49-0.47H34.6V17.7h1.75v-6.17h0.59
		l1.47,6.17h1.79l-1.62-6.38C39.56,11.08,39.85,10.55,39.85,8.93z M38.09,8.51c0,1.19-0.15,1.42-0.94,1.42h-0.77V5.98h0.96
		c0.3,0,0.47,0.04,0.57,0.11c0.08,0.06,0.13,0.23,0.15,0.34c0.02,0.13,0.04,0.4,0.04,0.77V8.51z"/>
	<path class="st0" d="M42.51,4.38L40.62,17.7h1.72l0.3-2.45h2l0.34,2.45h1.72L44.64,4.38H42.51z M42.83,13.63l0.74-6.93l0.85,6.93
		H42.83z"/>
	<path class="st0" d="M52.22,4.78c-0.53-0.45-1.3-0.4-1.47-0.4h-3.23V17.7h3.38c0.4,0,1.51,0.08,1.79-1.21
		c0.06-0.25,0.09-0.55,0.09-1.09V6.53C52.79,5.89,52.77,5.25,52.22,4.78z M51.02,15.33c0,0.62-0.17,0.74-0.57,0.74h-1.17V6h1.02
		c0.15,0,0.62-0.02,0.7,0.53c0.02,0.13,0.02,0.26,0.02,0.4V15.33z"/>
	<path class="st0" d="M58.07,14.57c0,0.89-0.02,1.36-0.4,1.68c-0.25,0.21-0.57,0.21-0.68,0.21c-1.08,0-1.06-1.02-1.06-1.77V4.38
		h-1.72v10.4c0,0.81,0.08,1.19,0.23,1.57c0.55,1.47,2.02,1.57,2.49,1.57c0.53,0,2.21-0.09,2.7-1.85c0.17-0.62,0.17-1.47,0.17-1.59
		V4.38h-1.74V14.57z"/>
	<path class="st0" d="M62.55,4.38L60.66,17.7h1.72l0.3-2.45h2l0.34,2.45h1.72L64.68,4.38H62.55z M62.87,13.63L63.6,6.7l0.85,6.93
		H62.87z"/>
	<path class="st0" d="M76.04,15.25h2l0.34,2.45h1.72L78.04,4.38h-2.13L74.02,17.7h1.72L76.04,15.25z M76.96,6.7l0.85,6.93h-1.58
		L76.96,6.7z"/>
	<path class="st0" d="M82.49,17.67c0.45,0.17,0.96,0.17,1.11,0.17c0.4,0,2.13,0.02,2.7-1.55c0.19-0.51,0.23-1.06,0.23-1.57V8.38
		c0-1.49-0.02-2.19-0.4-2.85c-0.08-0.15-0.26-0.45-0.6-0.72c-0.66-0.53-1.45-0.53-1.74-0.53c-0.94,0-1.51,0.34-1.83,0.59
		C80.92,5.66,80.92,6.82,80.92,8v6.64c0,0.75,0.02,1,0.13,1.4C81.34,17.08,82.13,17.53,82.49,17.67z M83.11,6
		c0.25-0.17,0.55-0.19,0.64-0.19c0.47,0,0.7,0.23,0.81,0.4c0.21,0.32,0.21,0.83,0.21,1.64v6.72c0,0.79,0.06,1.81-1.08,1.81
		c-0.91,0-1.02-0.68-1.02-1.4V7.85C82.68,6.85,82.64,6.31,83.11,6z"/>
	<path class="st0" d="M123.95,20.36h-31V0.47H0.48v19.89v0.9V51v0.9v19.89h63.97V51.9h59.49V20.36z M78.61,1.37
		c-0.15,0.16-0.31,0.22-0.44,0.22c-0.21,0-0.38-0.08-0.55-0.15l-0.18-0.07H78.61z M1.38,1.37h11.9l-1,1.71h0.91l1.76-1.71h60.55
		c-0.21,0.19-0.41,0.49-0.58,0.96c-0.06,0.17-0.13,0.36-0.19,0.55h0.49c0.04-0.13,0.04-0.19,0.09-0.28c0.23-0.4,0.55-0.47,0.74-0.47
		c0.3,0,0.62,0.17,0.7,0.21l0.45,0.21c0.06,0.02,0.4,0.19,0.72,0.19c0.45,0,0.7-0.26,0.92-0.62c0.16-0.22,0.28-0.48,0.4-0.73h12.82
		v19H71.66c0.3-0.23,0.49-0.53,0.47-0.94c0-0.08-0.02-0.36-0.25-0.6c-0.38-0.4-0.92-0.4-1.28-0.42l0.3-0.55
		c0.13-0.02,0.75-0.09,1.3-0.51c1.04-0.77,1.11-1.81,1.11-2.66v-2.49h-1.77v2.59c0,0.68-0.04,1.08-0.42,1.38
		c-0.15,0.11-0.36,0.19-0.7,0.19c-1.11,0-1.08-0.85-1.08-1.53V7.46c0-0.68,0-1.72,1.15-1.68c0.94,0.04,1.04,0.72,1.04,1.38v2.06
		h1.77v-1.7c0-0.62,0.15-3.26-2.76-3.26c-0.21,0-1.98-0.08-2.7,1.66c-0.28,0.68-0.28,1.45-0.28,2.17v6.42c0,0.87-0.02,2.06,1,2.83
		c0.57,0.43,1.25,0.51,1.4,0.53l-0.79,1.32c0.19,0,1.38-0.02,1.4,0.55c0.02,0.47-0.68,0.62-1.36,0.62h-0.42v0.02H1.38V1.37z
		 M63.56,70.89H1.38v-19h62.18V70.89z M123.05,51h-58.6H1.38V21.26h91.57h30.11V51z"/>
	<polygon class="st0" points="8.35,66.46 5.74,66.46 5.74,62.05 8.06,62.05 8.06,60.39 5.72,60.39 5.72,56.48 8.35,56.48 
		8.35,54.82 3.95,54.82 3.95,68.14 8.35,68.14 	"/>
	<path class="st0" d="M11.8,68.39c0.59,0,0.94-0.11,1.17-0.21c1.49-0.68,1.47-2.68,1.47-2.96c0-0.77-0.11-1.77-1.04-3.23
		c-0.19-0.3-0.38-0.59-0.59-0.87c-0.26-0.4-0.53-0.77-0.77-1.17c-0.58-0.92-0.89-1.55-0.89-2.66c0-0.62,0.02-1.36,0.87-1.36
		c0.74,0,0.68,0.75,0.7,0.91v2.36h1.6v-2.36c0-0.53-0.06-0.75-0.13-1c-0.42-1.3-1.75-1.28-2.11-1.28c-0.75,0-1.23,0.19-1.51,0.36
		c-0.55,0.32-1.19,1.09-1.19,2.57c0,1.55,0.74,2.68,1.02,3.13c0.51,0.85,1.11,1.62,1.6,2.49c0.49,0.83,0.64,1.36,0.64,2.32
		c0,0.6,0.02,1.55-0.85,1.57c-0.28,0-0.45-0.11-0.53-0.17c-0.28-0.19-0.38-0.47-0.38-1.11v-2.43H9.27v2.21
		c0,0.77,0.04,1.49,0.58,2.11C10.14,67.94,10.72,68.39,11.8,68.39z"/>
	<polygon class="st0" points="20.14,66.46 17.54,66.46 17.54,62.05 19.86,62.05 19.86,60.39 17.52,60.39 17.52,56.48 20.14,56.48 
		20.14,54.82 15.74,54.82 15.74,68.14 20.14,68.14 	"/>
	<polygon class="st0" points="25.93,66.5 23.03,66.5 23.03,54.82 21.27,54.82 21.27,68.14 25.93,68.14 	"/>
	<polygon class="st0" points="27.52,68.14 28.73,64.12 29.73,68.14 31.31,68.14 29.58,62.67 31.14,58.03 29.63,58.03 28.75,61.61 
		27.82,58.03 26.31,58.03 27.88,62.71 26.05,68.14 	"/>
	<rect x="35.5" y="61.86" class="st0" width="3.34" height="1.59"/>
	<rect x="43.56" y="54.82" class="st0" width="1.74" height="13.32"/>
	<path class="st0" d="M48.5,62.1h1.75c0.7,0,1.04-0.06,1.32-0.32c0.43-0.4,0.45-1.04,0.45-2.15V57.1c0-0.57,0.04-1.3-0.34-1.77
		c-0.45-0.59-1.34-0.51-1.47-0.51h-3.43v13.32h1.72V62.1z M48.52,56.44h1.08c0.55,0,0.66,0.17,0.66,0.66v2.83
		c0,0.45-0.15,0.58-0.62,0.58h-1.11V56.44z"/>
	<polygon class="st0" points="57.77,66.5 54.86,66.5 54.86,54.82 53.11,54.82 53.11,68.14 57.77,68.14 	"/>
</g>
</svg>
