<?xml version="1.0" encoding="utf-8"?>
<!-- Generator: Adobe Illustrator 27.6.1, SVG Export Plug-In . SVG Version: 6.00 Build 0)  -->
<svg version="1.1" id="Layer_1" xmlns="http://www.w3.org/2000/svg" xmlns:xlink="http://www.w3.org/1999/xlink" x="0px" y="0px"
	 viewBox="0 0 204 72" style="enable-background:new 0 0 204 72;" xml:space="preserve">
<style type="text/css">
	.st0{fill:#FFFFFF;}
</style>
<g>
	<path class="st0" d="M48.44,2.55h-1.47v5.7h0.73V5.66h0.75c0.3,0,0.44-0.02,0.56-0.14c0.19-0.17,0.19-0.44,0.19-0.92V3.52
		c0-0.24,0.02-0.56-0.15-0.76C48.87,2.52,48.49,2.55,48.44,2.55z M48.45,4.74c0,0.19-0.06,0.25-0.27,0.25h-0.48V3.24h0.46
		c0.23,0,0.28,0.07,0.28,0.28V4.74z"/>
	<path class="st0" d="M51.61,2.73c-0.28-0.23-0.62-0.23-0.74-0.23c-0.4,0-0.65,0.15-0.78,0.25c-0.44,0.34-0.44,0.83-0.44,1.34v2.84
		c0,0.32,0.01,0.43,0.06,0.6c0.12,0.44,0.46,0.64,0.61,0.69C50.5,8.3,50.72,8.3,50.79,8.3c0.17,0,0.91,0.01,1.15-0.66
		c0.08-0.22,0.1-0.45,0.1-0.67V4.26c0-0.64-0.01-0.94-0.17-1.22C51.84,2.98,51.75,2.85,51.61,2.73z M50.83,7.68
		c-0.39,0-0.44-0.29-0.44-0.6V4.03c0-0.43-0.02-0.66,0.19-0.79c0.1-0.07,0.23-0.08,0.27-0.08c0.2,0,0.3,0.1,0.35,0.17
		c0.09,0.14,0.09,0.36,0.09,0.7v2.87C51.29,7.25,51.31,7.68,50.83,7.68z"/>
	<path class="st0" d="M54.13,5.24c-0.11-0.17-0.23-0.33-0.33-0.5c-0.25-0.4-0.38-0.66-0.38-1.14c0-0.27,0.01-0.58,0.37-0.58
		c0.31,0,0.29,0.32,0.3,0.39v1.01h0.69V3.41c0-0.23-0.02-0.32-0.06-0.43c-0.18-0.56-0.75-0.55-0.9-0.55c-0.32,0-0.52,0.08-0.65,0.15
		c-0.23,0.14-0.51,0.47-0.51,1.1c0,0.66,0.31,1.15,0.44,1.34c0.22,0.36,0.48,0.69,0.69,1.07c0.21,0.36,0.27,0.58,0.27,0.99
		c0,0.26,0.01,0.66-0.36,0.67c-0.12,0-0.19-0.05-0.23-0.07c-0.12-0.08-0.16-0.2-0.16-0.48V6.16h-0.69v0.94
		c0,0.33,0.02,0.64,0.25,0.9c0.12,0.15,0.37,0.34,0.83,0.34c0.25,0,0.4-0.05,0.5-0.09c0.64-0.29,0.63-1.15,0.63-1.27
		c0-0.33-0.05-0.76-0.44-1.38C54.3,5.49,54.22,5.36,54.13,5.24z"/>
	<rect x="55.25" y="5.56" class="st0" width="1.43" height="0.68"/>
	<path class="st0" d="M58.24,5.91h0.46V7.2c0,0.15-0.01,0.35-0.16,0.45c-0.09,0.06-0.18,0.06-0.22,0.06
		c-0.19,0.01-0.28-0.11-0.31-0.18c-0.05-0.1-0.06-0.27-0.06-0.51V3.74c0-0.19-0.02-0.44,0.15-0.56c0.04-0.03,0.11-0.06,0.23-0.06
		c0.34-0.01,0.33,0.31,0.34,0.4c0,0.06,0.01,0.12,0.01,0.18v0.65h0.69v-0.6c0-0.48-0.03-0.67-0.19-0.88
		c-0.27-0.37-0.69-0.37-0.83-0.37c-0.71,0-0.96,0.44-1.05,0.7c-0.08,0.23-0.1,0.44-0.1,0.9v2.86c0,0.43,0.02,0.87,0.38,1.18
		c0.24,0.2,0.52,0.21,0.63,0.21c0.43,0,0.6-0.21,0.7-0.36l0.07,0.27h0.45V5.21h-1.2V5.91z"/>
	<path class="st0" d="M62.32,4.49V3.65c0-0.52-0.06-0.73-0.23-0.9c-0.13-0.13-0.35-0.2-0.64-0.2h-1.38v5.7h0.75V5.61h0.25l0.63,2.64
		h0.77l-0.69-2.73C62.2,5.41,62.32,5.19,62.32,4.49z M61.57,4.32c0,0.51-0.06,0.61-0.4,0.61h-0.33V3.23h0.41
		c0.13,0,0.2,0.02,0.24,0.05c0.03,0.02,0.06,0.1,0.06,0.15c0.01,0.06,0.02,0.17,0.02,0.33V4.32z"/>
	<path class="st0" d="M63.46,2.55l-0.81,5.7h0.73l0.13-1.05h0.86l0.15,1.05h0.73l-0.88-5.7H63.46z M63.6,6.5l0.31-2.96l0.36,2.96
		H63.6z"/>
	<path class="st0" d="M67.61,2.72c-0.23-0.19-0.56-0.17-0.63-0.17H65.6v5.7h1.44c0.17,0,0.65,0.03,0.77-0.52
		c0.02-0.1,0.04-0.23,0.04-0.47V3.47C67.86,3.19,67.85,2.92,67.61,2.72z M67.1,7.23c0,0.27-0.07,0.31-0.24,0.31h-0.5v-4.3h0.44
		c0.06,0,0.27-0.01,0.3,0.23c0.01,0.06,0.01,0.11,0.01,0.17V7.23z"/>
	<path class="st0" d="M70.12,6.91c0,0.38-0.01,0.58-0.17,0.72c-0.1,0.09-0.24,0.09-0.29,0.09c-0.46,0-0.45-0.44-0.45-0.76V2.55
		h-0.73V7c0,0.35,0.03,0.51,0.1,0.67c0.23,0.63,0.86,0.67,1.07,0.67c0.23,0,0.94-0.04,1.15-0.79c0.07-0.27,0.07-0.63,0.07-0.68V2.55
		h-0.74V6.91z"/>
	<path class="st0" d="M72.03,2.55l-0.81,5.7h0.73l0.13-1.05h0.86l0.15,1.05h0.73l-0.88-5.7H72.03z M72.17,6.5l0.31-2.96l0.36,2.96
		H72.17z"/>
	<path class="st0" d="M77.8,7.2h0.86l0.15,1.05h0.73l-0.88-5.7h-0.91l-0.81,5.7h0.73L77.8,7.2z M78.2,3.54l0.36,2.96h-0.68
		L78.2,3.54z"/>
	<path class="st0" d="M77.49,1.78c0.1-0.17,0.23-0.2,0.31-0.2c0.13,0,0.27,0.07,0.3,0.09l0.19,0.09c0.02,0.01,0.17,0.08,0.31,0.08
		c0.19,0,0.3-0.11,0.4-0.27c0.1-0.14,0.17-0.31,0.23-0.46H79c-0.09,0.18-0.2,0.24-0.29,0.24s-0.16-0.03-0.23-0.06l-0.2-0.08
		c-0.05-0.02-0.19-0.07-0.36-0.07c-0.23,0-0.44,0.1-0.6,0.53c-0.02,0.07-0.06,0.15-0.08,0.23h0.21C77.46,1.85,77.46,1.82,77.49,1.78
		z"/>
	<path class="st0" d="M80.56,8.23c0.19,0.07,0.41,0.07,0.48,0.07c0.17,0,0.91,0.01,1.15-0.66c0.08-0.22,0.1-0.45,0.1-0.67V4.26
		c0-0.64-0.01-0.94-0.17-1.22c-0.03-0.06-0.11-0.19-0.26-0.31c-0.28-0.23-0.62-0.23-0.74-0.23c-0.4,0-0.65,0.15-0.78,0.25
		c-0.44,0.34-0.44,0.83-0.44,1.34v2.84c0,0.32,0.01,0.43,0.06,0.6C80.07,7.98,80.41,8.17,80.56,8.23z M80.83,3.24
		c0.1-0.07,0.23-0.08,0.27-0.08c0.2,0,0.3,0.1,0.35,0.17c0.09,0.14,0.09,0.36,0.09,0.7v2.87c0,0.34,0.02,0.77-0.46,0.77
		c-0.39,0-0.44-0.29-0.44-0.6V4.03C80.64,3.61,80.63,3.37,80.83,3.24z"/>
	<polygon class="st0" points="48.63,69.08 47.51,69.08 47.51,67.19 48.5,67.19 48.5,66.48 47.5,66.48 47.5,64.81 48.63,64.81 
		48.63,64.1 46.74,64.1 46.74,69.8 48.63,69.8 	"/>
	<path class="st0" d="M50.1,69.9c0.25,0,0.4-0.05,0.5-0.09c0.64-0.29,0.63-1.15,0.63-1.27c0-0.33-0.05-0.76-0.44-1.38
		c-0.08-0.13-0.16-0.25-0.25-0.37c-0.11-0.17-0.23-0.33-0.33-0.5c-0.25-0.4-0.38-0.66-0.38-1.14c0-0.27,0.01-0.58,0.37-0.58
		c0.31,0,0.29,0.32,0.3,0.39v1.01h0.69v-1.01c0-0.23-0.02-0.32-0.06-0.43c-0.18-0.56-0.75-0.55-0.9-0.55
		c-0.32,0-0.52,0.08-0.65,0.15c-0.23,0.14-0.51,0.47-0.51,1.1c0,0.66,0.31,1.15,0.44,1.34c0.22,0.36,0.48,0.69,0.69,1.07
		c0.21,0.36,0.27,0.58,0.27,0.99c0,0.26,0.01,0.66-0.36,0.67c-0.12,0-0.19-0.05-0.23-0.07c-0.12-0.08-0.16-0.2-0.16-0.48v-1.04
		h-0.69v0.94c0,0.33,0.02,0.64,0.25,0.9C49.39,69.71,49.64,69.9,50.1,69.9z"/>
	<polygon class="st0" points="53.67,69.08 52.56,69.08 52.56,67.19 53.55,67.19 53.55,66.48 52.55,66.48 52.55,64.81 53.67,64.81 
		53.67,64.1 51.79,64.1 51.79,69.8 53.67,69.8 	"/>
	<polygon class="st0" points="56.15,69.09 54.9,69.09 54.9,64.1 54.15,64.1 54.15,69.8 56.15,69.8 	"/>
	<polygon class="st0" points="56.83,69.8 57.34,68.08 57.77,69.8 58.45,69.8 57.71,67.46 58.38,65.47 57.73,65.47 57.35,67 
		56.95,65.47 56.31,65.47 56.98,67.47 56.2,69.8 	"/>
	<rect x="60.24" y="67.11" class="st0" width="1.43" height="0.68"/>
	<rect x="63.69" y="64.1" class="st0" width="0.74" height="5.7"/>
	<path class="st0" d="M65.8,67.21h0.75c0.3,0,0.44-0.02,0.56-0.14c0.19-0.17,0.19-0.44,0.19-0.92v-1.08c0-0.24,0.02-0.56-0.15-0.76
		c-0.19-0.25-0.57-0.22-0.63-0.22h-1.47v5.7h0.73V67.21z M65.81,64.79h0.46c0.23,0,0.28,0.07,0.28,0.28v1.21
		c0,0.19-0.06,0.25-0.27,0.25h-0.48V64.79z"/>
	<polygon class="st0" points="69.76,69.09 68.52,69.09 68.52,64.1 67.77,64.1 67.77,69.8 69.76,69.8 	"/>
	<path class="st0" d="M54.39,21.16c1.01-0.29,1.61-0.81,1.9-1.08c0.62-0.58,1.5-1.71,1.5-3.8c0-1.28-0.37-2.65-1.28-3.58
		c-0.33-0.35-0.66-0.55-0.82-0.65c-1.11-0.69-2.17-0.81-3.44-0.81h-5.57V21.4h5.24C53.22,21.4,53.75,21.34,54.39,21.16z
		 M49.21,13.04h2.94c0.79,0,1.11,0.06,1.48,0.19c0.35,0.13,0.59,0.3,0.69,0.39c0.95,0.81,0.94,2.35,0.94,2.59
		c0,2-0.76,2.88-1.66,3.2c-0.62,0.23-1.42,0.2-1.57,0.2h-2.82V13.04z"/>
	<path class="st0" d="M74.69,21.18v-1.37c0-0.12-0.1-0.22-0.22-0.22H62.12v-2.42h11.84c0.12,0,0.22-0.1,0.22-0.22v-1.37
		c0-0.12-0.1-0.22-0.22-0.22H62.12v-2.29h12.07c0.12,0,0.22-0.1,0.22-0.22v-1.38c0-0.12-0.1-0.22-0.22-0.22H59.57V21.4h14.9
		C74.59,21.4,74.69,21.3,74.69,21.18z"/>
	<path class="st0" d="M75.77,19.29c0.1,0.17,0.5,0.76,1.07,1.21c0.3,0.23,0.59,0.4,0.71,0.46c0.72,0.39,1.73,0.76,3.54,0.76
		c0.36,0,0.72-0.01,1.08-0.04c0.58-0.06,1.12-0.13,1.68-0.3c2.07-0.66,2.4-2.12,2.4-3.04c0.01-1.89-1.45-2.4-2.04-2.61
		c-0.35-0.12-0.66-0.19-1.38-0.32c-0.73-0.14-2.55-0.4-3.27-0.62c-0.45-0.14-0.81-0.36-0.81-0.88c0-1.01,1.34-1.11,1.42-1.12
		c0.39-0.06,0.69-0.06,0.85-0.06c0.89,0,2.07,0.16,2.71,0.89c0.04,0.04,0.09,0.1,0.15,0.19c0.05,0.08,0.15,0.12,0.24,0.1l1.95-0.49
		c0.15-0.04,0.21-0.21,0.13-0.33c-0.15-0.24-0.28-0.41-0.53-0.66c-0.52-0.52-1.01-0.75-1.27-0.86c-0.72-0.35-1.64-0.65-3.37-0.65
		c-1.81,0-2.86,0.43-3.51,0.88c-0.4,0.27-1.24,0.95-1.24,2.3c0,1.54,1.14,2.2,1.6,2.42c0.82,0.39,1.83,0.53,3.7,0.82
		c0.92,0.14,1.58,0.24,1.9,0.49c0.22,0.16,0.33,0.4,0.33,0.68c0,0.5-0.36,0.79-0.49,0.88c-0.69,0.47-1.97,0.46-2.07,0.46
		c-1.19,0-2.68-0.29-3.33-1.43c-0.05-0.09-0.15-0.13-0.25-0.11l-1.88,0.48c-0.14,0.04-0.21,0.2-0.14,0.32
		C75.69,19.17,75.73,19.23,75.77,19.29z"/>
	<path class="st0" d="M88.25,21.4h2.1c0.12,0,0.22-0.1,0.22-0.22v-9.72c0-0.12-0.1-0.22-0.22-0.22h-2.1c-0.12,0-0.22,0.1-0.22,0.22
		v9.72C88.03,21.3,88.13,21.4,88.25,21.4z"/>
	<path class="st0" d="M94.34,20.57c0.76,0.56,1.96,1.14,4.12,1.14c0.36,0,0.75-0.01,1.12-0.07c1.38-0.19,2.29-0.73,2.72-1.08
		c0,0,0,0,0,0c0.14-0.11,0.36-0.01,0.36,0.17v0.46c0,0.12,0.1,0.22,0.22,0.22h1.5c0.12,0,0.22-0.1,0.22-0.22v-5
		c0-0.12-0.1-0.22-0.22-0.22h-5.01c-0.12,0-0.22,0.1-0.22,0.22v1.38c0,0.12,0.1,0.22,0.22,0.22h2.77c0.16,0,0.27,0.17,0.2,0.32
		c-0.07,0.14-0.17,0.31-0.34,0.5c-0.76,0.86-2.09,1.24-3.2,1.24c-0.59,0-2.81-0.1-3.6-2.13c-0.24-0.62-0.26-1.18-0.26-1.41
		c0-0.96,0.33-1.67,0.53-1.99c0.69-1.09,2-1.54,3.24-1.54c0.91,0,1.84,0.22,2.52,0.79c0.19,0.17,0.38,0.38,0.48,0.51
		c0.05,0.06,0.12,0.09,0.2,0.08l2.35-0.33c0.16-0.02,0.24-0.2,0.16-0.34c-0.15-0.24-0.3-0.45-0.5-0.69
		c-1.73-1.9-4.42-1.91-5.11-1.91c-1.48,0-2.88,0.22-4.16,1.02c-0.33,0.22-0.69,0.5-0.96,0.79c-0.45,0.47-1.37,1.73-1.37,3.57
		c0,0.59,0.1,1.11,0.14,1.32C92.83,19.34,93.75,20.14,94.34,20.57z"/>
	<path class="st0" d="M106.82,21.4h1.97c0.12,0,0.22-0.1,0.22-0.22v-6.32c0-0.2,0.25-0.3,0.39-0.15l5.82,6.61
		c0.04,0.05,0.1,0.08,0.17,0.08h2.18c0.12,0,0.22-0.1,0.22-0.22v-9.72c0-0.12-0.1-0.22-0.22-0.22h-1.97c-0.12,0-0.22,0.1-0.22,0.22
		v6.29c0,0.2-0.25,0.3-0.39,0.15l-5.78-6.58c-0.04-0.05-0.1-0.08-0.17-0.08h-2.23c-0.12,0-0.22,0.1-0.22,0.22v9.72
		C106.6,21.3,106.7,21.4,106.82,21.4z"/>
	<path class="st0" d="M52.85,34.37c1.01-0.29,1.61-0.81,1.9-1.08c0.62-0.58,1.5-1.71,1.5-3.8c0-1.28-0.37-2.65-1.28-3.58
		c-0.33-0.35-0.66-0.55-0.82-0.65c-1.11-0.69-2.17-0.81-3.44-0.81h-4.04v10.16h5.24C53.22,34.61,52.22,34.55,52.85,34.37z
		 M50.49,32.81h-1.29v-6.56h1.4c0.79,0,1.11,0.06,1.48,0.19c0.35,0.13,0.59,0.3,0.69,0.39c0.95,0.81,0.94,2.35,0.94,2.59
		c0,2-0.76,2.88-1.66,3.2C51.44,32.84,50.64,32.81,50.49,32.81z"/>
	<polygon class="st0" points="64.73,32.8 60.58,32.8 60.58,30.38 64.21,30.38 64.21,28.57 60.58,28.57 60.58,26.28 64.44,26.28 
		64.44,24.45 58.03,24.45 58.03,34.61 64.73,34.61 	"/>
	<path class="st0" d="M74.27,30.78h2.01c0.89,0,1.93-0.03,2.72-0.5c0.35-0.22,0.56-0.46,0.66-0.58c0.23-0.26,0.33-0.47,0.39-0.62
		c0.27-0.59,0.29-1.24,0.29-1.45c0-0.89-0.26-1.51-0.45-1.81c-0.56-0.96-1.55-1.28-2.61-1.35c-0.26-0.01-0.52-0.01-0.78-0.01h-4.74
		v10.16h2.5V30.78z M74.27,26.2h2.04c0.35,0,0.46,0.01,0.63,0.07c0.82,0.24,0.86,1.14,0.86,1.35c0,0.24-0.01,0.94-0.71,1.22
		C76.75,29,76.23,29,75.86,29h-1.59V26.2z"/>
	<path class="st0" d="M84.18,30.52h2.91l2.71,4.09h3.01l-3.09-4.25c1.04-0.19,1.91-0.5,2.37-1.54c0.26-0.58,0.27-1.08,0.27-1.34
		c0-1.34-0.72-2.46-2.03-2.85c-0.42-0.13-0.81-0.19-1.68-0.19h-6.99v10.16h2.53V30.52z M84.18,26.23h4c0.52,0,1.08,0.03,1.4,0.52
		c0.19,0.29,0.2,0.66,0.2,0.76c0,0.83-0.59,1.09-0.89,1.17c-0.22,0.06-0.62,0.04-0.63,0.04h-4.07V26.23z"/>
	<path class="st0" d="M99.71,34.94c2.01,0,3.31-0.58,4.02-1.04c1.54-1.04,1.94-2.5,2.07-3.18c0.12-0.56,0.12-1.09,0.12-1.3
		c0-1.7-0.65-2.82-1.08-3.32c-0.23-0.29-0.52-0.55-0.81-0.76c-0.36-0.26-0.65-0.4-0.81-0.49c-1.14-0.56-2.66-0.76-3.93-0.72
		c-1.37,0.06-2.85,0.4-3.96,1.25c-0.75,0.58-1.89,1.8-1.89,4.15c0,1.55,0.56,2.62,0.91,3.11C95.09,33.72,96.69,34.94,99.71,34.94z
		 M98.1,26.29c0.63-0.27,1.24-0.32,1.47-0.33c1.05-0.03,2.14,0.33,2.85,1.11c0.85,0.94,0.91,2.04,0.91,2.48
		c0,0.63-0.17,2.61-2.17,3.32c-0.63,0.23-1.24,0.24-1.47,0.24c-1.25,0-2.03-0.43-2.43-0.78c-0.26-0.22-0.45-0.49-0.52-0.58
		c-0.23-0.32-0.32-0.5-0.39-0.69c-0.26-0.6-0.27-1.27-0.27-1.47C96.07,28.93,96.21,27.13,98.1,26.29z"/>
	<path class="st0" d="M124.93,34.37c1.01-0.29,1.61-0.81,1.9-1.08c0.62-0.58,1.5-1.71,1.5-3.8c0-1.28-0.37-2.65-1.28-3.58
		c-0.33-0.35-0.66-0.55-0.82-0.65c-1.11-0.69-2.17-0.81-3.44-0.81h-15.07v10.16h14.74C123.76,34.61,124.3,34.55,124.93,34.37z
		 M110.24,26.25h12.44c0.79,0,1.11,0.06,1.48,0.19c0.35,0.13,0.59,0.3,0.69,0.39c0.95,0.81,0.94,2.35,0.94,2.59
		c0,2-0.76,2.88-1.66,3.2c-0.62,0.23-1.42,0.2-1.57,0.2h-12.33V26.25z"/>
	<path class="st0" d="M133.62,34.75c0.88,0.19,1.66,0.2,1.99,0.2c1.4,0,3.21-0.33,4.3-1.31c0.32-0.29,0.52-0.59,0.6-0.72
		c0.5-0.82,0.52-1.61,0.52-2.56v-5.92h-2.53v6.35c0,0.49-0.06,0.66-0.17,0.89c-0.1,0.19-0.33,0.55-0.81,0.81
		c-0.71,0.4-1.71,0.4-1.9,0.4c-0.23,0-1.4,0.03-2.2-0.55c-0.69-0.49-0.81-1.14-0.81-1.91v-5.99h-2.53v5.9
		c0,1.11,0.07,1.57,0.29,2.07C130.73,33.26,131.59,34.31,133.62,34.75z"/>
	<polygon class="st0" points="144.61,34.61 147.17,34.61 147.17,26.31 149.4,26.31 149.4,24.45 142.37,24.45 142.37,26.31 
		144.61,26.31 	"/>
	<path class="st0" d="M155.89,34.94c2.02,0,3.31-0.58,4.02-1.04c1.54-1.04,1.94-2.5,2.07-3.18c0.12-0.56,0.12-1.09,0.12-1.3
		c0-1.7-0.65-2.82-1.08-3.32c-0.23-0.29-0.52-0.55-0.81-0.76c-0.36-0.26-0.65-0.4-0.81-0.49c-1.14-0.56-2.66-0.76-3.93-0.72
		c-1.37,0.06-2.85,0.4-3.96,1.25c-0.75,0.58-1.89,1.8-1.89,4.15c0,1.55,0.56,2.62,0.91,3.11C151.27,33.72,152.86,34.94,155.89,34.94
		z M154.27,26.29c0.63-0.27,1.24-0.32,1.47-0.33c1.05-0.03,2.14,0.33,2.85,1.11c0.85,0.94,0.91,2.04,0.91,2.48
		c0,0.63-0.17,2.61-2.17,3.32c-0.63,0.23-1.24,0.24-1.47,0.24c-1.25,0-2.03-0.43-2.43-0.78c-0.26-0.22-0.45-0.49-0.52-0.58
		c-0.23-0.32-0.32-0.5-0.39-0.69c-0.26-0.6-0.27-1.27-0.27-1.47C152.24,28.93,152.39,27.13,154.27,26.29z"/>
	<path class="st0" d="M170.88,32.6c-0.69,0.47-1.97,0.46-2.07,0.46c-1.24,0-2.81-0.32-3.41-1.58l-2.32,0.59
		c0.07,0.14,0.14,0.29,0.24,0.43c0.1,0.17,0.5,0.76,1.07,1.21c0.3,0.23,0.59,0.4,0.71,0.46c0.72,0.39,1.73,0.76,3.54,0.76
		c0.36,0,0.72-0.01,1.08-0.04c0.58-0.06,1.12-0.13,1.68-0.3c2.07-0.66,2.4-2.12,2.4-3.04c0.01-1.89-1.45-2.4-2.04-2.61
		c-0.35-0.12-0.66-0.19-1.38-0.32c-0.73-0.14-2.55-0.4-3.27-0.62c-0.45-0.14-0.81-0.36-0.81-0.88c0-1.01,1.34-1.11,1.42-1.12
		c0.39-0.06,0.69-0.06,0.85-0.06c0.89,0,2.07,0.16,2.71,0.89c0.06,0.06,0.13,0.16,0.23,0.33l2.4-0.6c-0.23-0.39-0.36-0.59-0.69-0.92
		c-0.52-0.52-1.01-0.75-1.27-0.86c-0.72-0.35-1.64-0.65-3.37-0.65c-1.81,0-2.86,0.43-3.51,0.88c-0.4,0.27-1.24,0.95-1.24,2.3
		c0,1.54,1.14,2.2,1.6,2.42c0.82,0.39,1.83,0.53,3.7,0.82c0.92,0.14,1.58,0.24,1.9,0.49c0.22,0.16,0.33,0.4,0.33,0.68
		C171.37,32.22,171.01,32.51,170.88,32.6z"/>
	<rect x="46.69" y="37.66" class="st0" width="2.55" height="10.16"/>
	<polygon class="st0" points="53.88,40.69 60.16,47.82 62.66,47.82 62.66,37.66 60.24,37.66 60.24,44.75 54.01,37.66 51.46,37.66 
		51.46,47.82 53.88,47.82 	"/>
	<polygon class="st0" points="67.8,47.82 70.36,47.82 70.36,39.51 74.12,39.51 74.12,37.66 64.03,37.66 64.03,39.51 67.8,39.51 	"/>
	<polygon class="st0" points="90.58,46.01 78,46.01 78,43.59 90.06,43.59 90.06,41.77 78,41.77 78,39.49 90.29,39.49 90.29,37.66 
		75.46,37.66 75.46,47.82 90.58,47.82 	"/>
	<path class="st0" d="M94.77,43.73h2.91l2.71,4.09h3.01l-3.09-4.25c1.04-0.19,1.91-0.5,2.37-1.54c0.26-0.58,0.27-1.08,0.27-1.34
		c0-1.34-0.72-2.46-2.03-2.85c-0.42-0.13-0.81-0.19-1.68-0.19h-7v10.16h2.53V43.73z M94.77,39.44h4c0.52,0,1.08,0.03,1.4,0.52
		c0.19,0.29,0.2,0.66,0.2,0.76c0,0.83-0.59,1.09-0.89,1.17c-0.22,0.06-0.62,0.04-0.63,0.04h-4.07V39.44z"/>
	<path class="st0" d="M107.52,45.9h5.21l0.86,1.91h2.85l-4.91-10.16h-2.75l-4.91,10.16h2.78L107.52,45.9z M110.14,40.13l1.77,3.97
		h-3.57L110.14,40.13z"/>
	<polygon class="st0" points="117.4,47.82 119.96,47.82 119.96,39.51 122.19,39.51 122.19,37.66 115.16,37.66 115.16,39.51 
		117.4,39.51 	"/>
	<rect x="123.54" y="37.66" class="st0" width="2.55" height="10.16"/>
	<polygon class="st0" points="134.28,47.82 138.84,37.66 136.1,37.66 133.05,45.16 130.02,37.66 127.21,37.66 131.8,47.82 	"/>
	<path class="st0" d="M145.23,48.15c2.02,0,3.31-0.58,4.02-1.04c1.54-1.04,1.94-2.5,2.07-3.18c0.12-0.56,0.12-1.09,0.12-1.3
		c0-1.7-0.65-2.82-1.08-3.32c-0.23-0.29-0.52-0.55-0.81-0.76c-0.36-0.26-0.65-0.4-0.81-0.49c-1.14-0.56-2.66-0.76-3.93-0.72
		c-1.37,0.06-2.85,0.4-3.96,1.25c-0.75,0.58-1.89,1.8-1.89,4.15c0,1.55,0.56,2.62,0.91,3.11C140.61,46.93,142.21,48.15,145.23,48.15
		z M143.62,39.5c0.63-0.27,1.24-0.32,1.47-0.33c1.05-0.03,2.14,0.33,2.85,1.11c0.85,0.94,0.91,2.04,0.91,2.48
		c0,0.63-0.17,2.61-2.17,3.32c-0.63,0.23-1.24,0.24-1.47,0.24c-1.25,0-2.03-0.43-2.43-0.78c-0.26-0.22-0.45-0.49-0.52-0.58
		c-0.23-0.32-0.32-0.5-0.39-0.69c-0.26-0.6-0.27-1.27-0.27-1.47C141.59,42.13,141.73,40.33,143.62,39.5z"/>
	<path class="st0" d="M160.23,45.8c-0.69,0.47-1.97,0.46-2.07,0.46c-1.24,0-2.81-0.32-3.41-1.58l-2.32,0.59
		c0.07,0.14,0.14,0.29,0.24,0.43c0.1,0.17,0.5,0.76,1.07,1.21c0.3,0.23,0.59,0.4,0.71,0.46c0.72,0.39,1.73,0.76,3.54,0.76
		c0.36,0,0.72-0.01,1.08-0.04c0.58-0.06,1.12-0.13,1.68-0.3c2.07-0.66,2.4-2.12,2.4-3.04c0.01-1.89-1.45-2.4-2.04-2.61
		c-0.35-0.12-0.66-0.19-1.38-0.32c-0.73-0.14-2.55-0.4-3.27-0.62c-0.45-0.14-0.81-0.36-0.81-0.88c0-1.01,1.34-1.11,1.42-1.12
		c0.39-0.06,0.69-0.06,0.85-0.06c0.89,0,2.07,0.16,2.71,0.89c0.06,0.06,0.13,0.16,0.23,0.33l2.4-0.6c-0.23-0.39-0.36-0.59-0.69-0.92
		c-0.52-0.52-1.01-0.75-1.27-0.86c-0.72-0.35-3.17-0.65-4.9-0.65c-1.81,0-1.33,0.43-1.98,0.88c-0.4,0.27-1.24,0.95-1.24,2.3
		c0,1.54,1.14,2.2,1.6,2.42c0.82,0.39,1.83,0.53,3.7,0.82c0.92,0.14,1.58,0.24,1.9,0.49c0.22,0.16,0.33,0.4,0.33,0.68
		C160.71,45.43,160.35,45.72,160.23,45.8z"/>
	<path class="st0" d="M55.24,54.05c0-0.89-0.26-1.51-0.45-1.81c-0.56-0.96-1.55-1.28-2.61-1.35c-0.26-0.01-0.52-0.01-0.78-0.01
		h-4.74v10.16h2.5V57.2h2.01c0.89,0,1.93-0.03,2.72-0.5c0.35-0.22,0.56-0.46,0.66-0.58c0.23-0.26,0.33-0.47,0.39-0.62
		C55.23,54.91,55.24,54.26,55.24,54.05z M52,55.27c-0.35,0.14-0.86,0.14-1.24,0.14h-1.59v-2.79h2.04c0.35,0,0.46,0.01,0.63,0.07
		c0.82,0.24,0.86,1.14,0.86,1.35C52.71,54.29,52.7,54.98,52,55.27z"/>
	<path class="st0" d="M59.55,50.87l-4.91,10.16h2.78l0.86-1.91h5.21l0.86,1.91h2.85L62.3,50.87H59.55z M59.1,57.31l1.8-3.97
		l1.77,3.97H59.1z"/>
	<path class="st0" d="M76.48,55.24c0.26-0.58,0.27-1.08,0.27-1.34c0-1.34-0.72-2.46-2.03-2.85c-0.42-0.13-0.81-0.19-1.68-0.19h-4.7
		v10.16h2.53v-4.09h0.61l2.71,4.09h3.01l-3.09-4.25C75.14,56.59,76.01,56.28,76.48,55.24z M73.28,55.1
		c-0.22,0.06-0.62,0.04-0.63,0.04h-1.77v-2.49h1.7c0.52,0,1.08,0.03,1.4,0.52c0.19,0.29,0.2,0.66,0.2,0.76
		C74.17,54.77,73.58,55.03,73.28,55.1z"/>
	<path class="st0" d="M82.59,50.87l-4.91,10.16h2.78l0.86-1.91h5.21l0.86,1.91h2.85l-4.91-10.16H82.59z M82.15,57.31l1.8-3.97
		l1.77,3.97H82.15z"/>
	<polygon class="st0" points="99.32,56.8 110.61,56.8 110.61,54.98 99.32,54.98 99.32,52.69 110.84,52.69 110.84,50.87 96.77,50.87 
		96.77,61.03 111.13,61.03 111.13,59.21 99.32,59.21 	"/>
	<path class="st0" d="M120.24,51.67c-1.11-0.69-2.17-0.81-3.44-0.81h-4.04v10.16h3.71c1.31,0,1.84-0.06,2.48-0.24
		c1.01-0.29,1.61-0.81,1.9-1.08c0.62-0.58,1.5-1.71,1.5-3.8c0-1.28-0.37-2.65-1.28-3.58C120.73,51.97,120.4,51.77,120.24,51.67z
		 M119.81,55.83c0,2-0.76,2.88-1.66,3.2c-0.62,0.23-1.42,0.2-1.57,0.2h-1.29v-6.56h1.4c0.79,0,1.11,0.06,1.48,0.19
		c0.35,0.13,0.59,0.3,0.69,0.39C119.83,54.05,119.81,55.59,119.81,55.83z"/>
	<path class="st0" d="M132.52,57.21c0,0.49-0.06,0.66-0.17,0.89c-0.1,0.19-0.33,0.55-0.81,0.81c-0.71,0.4-1.71,0.4-1.9,0.4
		c-0.23,0-1.4,0.03-2.2-0.55c-0.69-0.49-0.81-1.14-0.81-1.91v-5.99h-2.53v5.9c0,1.11,0.07,1.57,0.29,2.07
		c0.36,0.83,1.22,1.89,3.25,2.33c0.88,0.19,1.66,0.2,1.99,0.2c1.4,0,3.21-0.33,4.3-1.31c0.32-0.29,0.52-0.59,0.6-0.72
		c0.5-0.82,0.52-1.61,0.52-2.56v-5.92h-2.53V57.21z"/>
	<path class="st0" d="M145.83,58.41c-0.4,0.47-1.19,1.09-2.68,1.09c-1.25,0-2.03-0.5-2.42-0.82c-0.33-0.26-0.55-0.52-0.63-0.65
		c-0.42-0.59-0.63-1.37-0.63-2.07c0-1.42,0.71-2.69,2.03-3.24c0.68-0.29,1.32-0.3,1.58-0.3c1.01,0,1.7,0.35,2.03,0.56
		c0.58,0.39,0.86,0.83,1.02,1.08l2.78-0.35c-0.06-0.14-0.13-0.29-0.2-0.43c-0.19-0.33-0.66-1.05-1.53-1.63
		c-1.58-1.07-3.54-1.11-4.1-1.11c-2.03,0-3.4,0.62-4.06,1.07c-0.2,0.13-0.37,0.24-0.72,0.58c-0.26,0.24-0.45,0.46-0.65,0.76
		c-0.58,0.86-0.82,1.94-0.82,2.98c0,0.75,0.09,2.88,1.93,4.25c1.58,1.18,3.6,1.19,4.17,1.19c2.5,0,3.84-0.78,4.68-1.51
		c0.62-0.55,0.89-1.01,1.05-1.32c0.13-0.26,0.22-0.45,0.36-0.96l-2.68,0.03C146.12,58.03,146.01,58.22,145.83,58.41z"/>
	<path class="st0" d="M154.04,50.87l-4.91,10.16h2.78l0.86-1.91h5.21l0.86,1.91h2.85l-4.91-10.16H154.04z M153.59,57.31l1.8-3.97
		l1.77,3.97H153.59z"/>
	<path class="st0" d="M178.99,50.87l-4.91,10.16h2.78l0.86-1.91h5.21l0.86,1.91h2.85l-4.91-10.16H178.99z M178.55,57.31l1.8-3.97
		l1.77,3.97H178.55z"/>
	<path class="st0" d="M193.01,61.36c2.02,0,3.31-0.58,4.02-1.04c1.54-1.04,1.94-2.5,2.07-3.18c0.12-0.56,0.12-1.09,0.12-1.3
		c0-1.7-0.65-2.82-1.08-3.32c-0.23-0.29-0.52-0.55-0.81-0.76c-0.36-0.26-0.65-0.4-0.81-0.49c-1.14-0.56-2.66-0.76-3.93-0.72
		c-1.37,0.06-2.85,0.4-3.96,1.25c-0.75,0.58-1.89,1.8-1.89,4.15c0,1.55,0.56,2.62,0.91,3.11C188.39,60.14,189.99,61.36,193.01,61.36
		z M191.4,52.71c0.63-0.27,1.24-0.32,1.47-0.33c1.05-0.03,2.14,0.33,2.85,1.11c0.85,0.94,0.91,2.04,0.91,2.48
		c0,0.63-0.17,2.61-2.17,3.32c-0.63,0.23-1.24,0.24-1.47,0.24c-1.25,0-2.03-0.43-2.43-0.78c-0.26-0.22-0.45-0.49-0.52-0.58
		c-0.23-0.32-0.32-0.5-0.39-0.69c-0.26-0.6-0.27-1.27-0.27-1.47C189.37,55.34,189.51,53.54,191.4,52.71z"/>
	<path class="st0" d="M202.36,49.03h-19.09c0.07-0.23,0.11-0.48,0.14-0.72h-0.89c-0.01,0.12-0.04,0.17-0.07,0.23
		c-0.13,0.23-0.39,0.3-0.63,0.3c-0.26,0-0.58-0.07-1.09-0.23c-0.07-0.03-0.96-0.33-1.58-0.33c-0.81,0-1.2,0.39-1.37,0.75h-11.43
		V36.15h11.42V22.66h-55.34V9.55H85.47V0.66H43.81v8.88H1v52.98h42.84h0.04v8.89h27.91v-8.89h94.83l0.15,0.37
		c0.26-0.06,0.52-0.13,0.79-0.13c0.24,0,0.65,0.04,0.66,0.47c0.01,0.1-0.03,0.22-0.13,0.32c-0.14,0.17-0.42,0.23-0.81,0.23
		c-0.22,0-0.43-0.01-0.65-0.04l-0.01,0.72c0.45,0.07,0.89,0.14,1.32,0.14c0.63,0,1.97-0.22,1.97-1.34c0-0.33-0.11-0.57-0.28-0.74
		h32.72V49.03z M43.84,35.84v0.31v12.88v0.31v12.8H1.38V9.92h42.44v13.12h0.01V35.84z M177.37,23.04v12.72H44.23V23.04h78.18H177.37
		z M165.95,36.23v12.72H44.23V36.23H165.95z M122.03,9.93v12.72h-77.8V9.93H122.03z M44.19,1.04h6.89l-0.55,0.95h0.39l0.97-0.95
		h33.2v8.43h-9.31c0.21-0.1,0.36-0.26,0.35-0.49c0-0.03-0.01-0.15-0.1-0.26c-0.16-0.17-0.4-0.17-0.55-0.18l0.13-0.23
		c0.06-0.01,0.32-0.04,0.56-0.22c0.44-0.33,0.48-0.77,0.48-1.14V5.89h-0.76V7c0,0.29-0.02,0.46-0.18,0.59
		c-0.06,0.05-0.15,0.08-0.3,0.08c-0.48,0-0.46-0.36-0.46-0.65V3.86c0-0.29,0-0.73,0.49-0.72c0.4,0.02,0.44,0.31,0.44,0.59v0.88h0.76
		V3.89c0-0.27,0.06-1.4-1.18-1.4c-0.09,0-0.85-0.03-1.15,0.71c-0.12,0.29-0.12,0.62-0.12,0.93v2.74c0,0.37-0.01,0.88,0.43,1.21
		c0.24,0.19,0.53,0.22,0.6,0.23l-0.34,0.56c0.08,0,0.59-0.01,0.6,0.23c0.01,0.2-0.29,0.27-0.58,0.27h-0.18v0.1H44.19V1.04z
		 M71.41,71.02H44.26v-8.43h27.15V71.02z M201.98,62.13h-33.09c-0.23-0.05-0.45-0.07-0.64-0.07c-0.14,0-0.27,0.01-0.4,0.03
		l0.47-0.72c0.45-0.04,2.46,0,4.19-1.45c0.96-0.82,1.18-1.44,1.47-2.35l-2.68,0.03c-0.03,0.06-0.24,0.49-0.47,0.78
		c-0.75,0.91-1.89,1.12-2.72,1.12c-1.53,0-2.55-0.78-3.07-1.5c-0.26-0.36-0.59-1.02-0.62-1.94c-0.06-2.17,1.47-3.64,3.61-3.64
		c0.86,0,1.89,0.24,2.68,1.12c0.16,0.17,0.24,0.32,0.37,0.52l2.78-0.35c-0.06-0.12-0.26-0.58-0.59-0.99
		c-1.76-2.27-5.07-2.17-5.24-2.17c-3.14,0-6.25,1.5-6.25,5.4c0,3.48,2.42,5.05,5.6,5.41l0.13,0.01l-0.61,0.76H44.23V49.41h133.4
		c-0.06,0.24-0.07,0.45-0.07,0.54l0.88,0.01c0.01-0.01,0.04-0.14,0.1-0.23c0.17-0.26,0.46-0.27,0.55-0.27c0.2,0,0.42,0.06,0.83,0.17
		c0.55,0.16,1.24,0.4,1.86,0.4c0.72,0.01,1.1-0.31,1.31-0.62h18.88V62.13z"/>
	<rect x="30.98" y="32.83" class="st0" width="3.26" height="12.46"/>
	<path class="st0" d="M11.77,30.6c0.07,0.22,0.07,0.59,0.07,0.89h0.82c0-0.3-0.07-0.67-0.15-0.89c-0.15-0.15-0.3-0.22-0.37-0.3
		C11.99,30.38,11.84,30.53,11.77,30.6z"/>
	<rect x="11.54" y="32.83" class="st0" width="3.26" height="12.46"/>
	<path class="st0" d="M11.25,32.08c0,0.15,0.07,0.3,0.3,0.3h3.41c0.15,0,0.3-0.07,0.3-0.3c0-0.07-0.15-0.3-0.37-0.3h-3.34
		C11.39,31.79,11.25,31.93,11.25,32.08z"/>
	<path class="st0" d="M11.54,46.33h3.41c0.15,0,0.3-0.07,0.3-0.3c0-0.15-0.15-0.3-0.37-0.3h-3.34c-0.15,0-0.3,0.15-0.3,0.3
		C11.25,46.18,11.32,46.33,11.54,46.33z"/>
	<path class="st0" d="M13.77,31.34h0.82c0-0.3,0.07-0.67,0.07-0.89c-0.15-0.07-0.3-0.15-0.37-0.22c-0.07,0.15-0.22,0.22-0.37,0.22
		C13.84,30.75,13.84,31.12,13.77,31.34z"/>
	<path class="st0" d="M14.21,27.85h-2c0.15,0.07,0.22,0.15,0.3,0.22c0.22,0.22,0.45,0.3,0.59,0.3h0.15c0.3,0,0.37-0.15,0.67-0.3
		L14.21,27.85z"/>
	<path class="st0" d="M15.62,30.01c0-0.3-0.37-0.3-0.67-0.3c-0.22,0-0.3,0-0.45,0.07h-0.07v0.3c0.22,0.15,0.59,0.3,0.74,0.45
		C15.25,30.3,15.7,30.23,15.62,30.01z"/>
	<path class="st0" d="M13.03,30.67c0,0-0.07-0.07-0.15-0.07c0,0.22,0.07,0.45,0.07,0.74h0.59c0-0.3,0.07-0.52,0.07-0.74
		c-0.07,0.07-0.15,0.07-0.15,0.07l-0.22,0.22L13.03,30.67z"/>
	<path class="st0" d="M11.17,30.45c0.22-0.15,0.59-0.3,0.82-0.52v-0.22h-0.07l-0.45-0.07c-0.3,0-0.67,0-0.74,0.3
		C10.65,30.15,11.1,30.23,11.17,30.45z"/>
	<path class="st0" d="M34.39,29.71c-0.22,0-0.3,0-0.45,0.07h-0.07v0.3c0.22,0.15,0.59,0.3,0.74,0.45c0.07-0.22,0.52-0.3,0.45-0.52
		C35.06,29.71,34.69,29.71,34.39,29.71z"/>
	<polygon class="st0" points="30.91,46.63 30.31,47.22 34.99,47.22 34.39,46.63 	"/>
	<path class="st0" d="M34.47,28c-0.82,0.07-1.04,0.59-1.63,0.67v0.67c0.3,0,0.67,0,0.82,0.15l0.07-0.07h0.15
		c0-0.3,0.07-0.52,0.15-0.67c0,0.15-0.07,0.3,0.07,0.45c0.07,0.07,0.07,0.15,0.15,0.15l0.22,0.15l0.22,0.07h0.67
		c0.07-0.07,0.15-0.15,0.22-0.3C35.58,28.52,35.21,28,34.47,28z"/>
	<rect x="30.31" y="47.52" class="st0" width="4.67" height="2.45"/>
	<path class="st0" d="M30.31,51H15.55v-0.45h-4.67v1.19h5.49v5.71h13.06v-5.71h5.56v-1.19h-4.67V51z M27.49,51.74h0.59l0.22,2.75
		h-0.96L27.49,51.74z M24.97,51.74h0.59l0.22,2.75h-0.96L24.97,51.74z M22.6,51.74h0.59l0.22,2.75h-0.89L22.6,51.74z M20.15,51.74
		h0.59l0.22,2.75H20L20.15,51.74z M17.78,51.74h0.59l0.22,2.75h-0.96L17.78,51.74z M18.67,56.79H17.4v-0.37h1.26V56.79z M18.81,56.2
		H17.4v-1.56h1.41V56.2z M21.11,56.79h-1.26v-0.37h1.26V56.79z M21.19,56.2h-1.41v-1.56h1.41V56.2z M23.56,56.79H22.3v-0.37h1.26
		V56.79z M23.64,56.2h-1.41v-1.56h1.41V56.2z M26.01,56.79h-1.26v-0.37h1.26V56.79z M26.01,56.2H24.6v-1.56h1.41V56.2z M28.39,56.79
		h-1.26v-0.37h1.26V56.79z M28.46,56.2h-1.41v-1.56h1.41V56.2z"/>
	<path class="st0" d="M16.66,19.32c-1.41,1.48-2.45,3.49-2.89,5.64h-2.82v0.96h3.49c0.3-2.23,1.26-4.3,2.75-5.86
		c1.26-1.34,2.82-2.15,4.45-2.45l-0.15-0.96C19.7,16.95,18,17.91,16.66,19.32z"/>
	<path class="st0" d="M10.88,29.49h0.45l0.37-0.22c0.07,0,0.07-0.07,0.15-0.15c0.15-0.15,0.07-0.3,0.07-0.45
		c0.07,0.15,0.15,0.37,0.15,0.67h0.07l0.07,0.07c0.15-0.15,0.52-0.15,0.82-0.15V28.6c-0.59-0.07-0.89-0.59-1.63-0.67
		c-0.74-0.07-1.11,0.52-0.82,1.19c0.07,0.15,0.15,0.22,0.22,0.3C10.95,29.49,10.95,29.49,10.88,29.49z"/>
	<path class="st0" d="M12.43,29.93c0,0.22,0.74,0.3,0.89,0.52c0.15-0.15,0.89-0.3,0.89-0.52c0-0.22-0.37-0.3-0.89-0.3
		C12.8,29.63,12.43,29.63,12.43,29.93z"/>
	<path class="st0" d="M16.14,29.26c0.07-0.74-0.37-1.26-1.11-1.26c-0.82,0.07-1.04,0.59-1.63,0.67v0.67c0.3,0,0.67,0,0.82,0.15
		l0.07-0.07h0.15c0-0.3,0.07-0.52,0.15-0.67c0,0.15-0.07,0.3,0.07,0.45c0.07,0.07,0.07,0.15,0.15,0.15l0.22,0.15l0.22,0.07h0.67
		C15.99,29.49,16.07,29.41,16.14,29.26z"/>
	<path class="st0" d="M30.61,46.03c0,0.15,0.07,0.3,0.3,0.3h3.41c0.15,0,0.3-0.07,0.3-0.3c0-0.15-0.15-0.3-0.37-0.3h-3.34
		C30.76,45.73,30.61,45.88,30.61,46.03z"/>
	<path class="st0" d="M30.54,30.45c0.3-0.15,0.67-0.3,0.82-0.52v-0.22h-0.07l-0.45-0.07c-0.3,0-0.67,0-0.74,0.3
		C30.02,30.15,30.46,30.23,30.54,30.45z"/>
	<path class="st0" d="M32.99,30.6c-0.07,0.07-0.07,0.07-0.15,0.07l-0.22,0.22l-0.22-0.22c0,0-0.07-0.07-0.15-0.07
		c0,0.22,0.07,0.45,0.07,0.74h0.59C32.91,31.04,32.99,30.82,32.99,30.6z"/>
	<path class="st0" d="M34.25,31.79h-3.34c-0.15,0-0.3,0.15-0.3,0.3c0,0.15,0.07,0.3,0.3,0.3h3.41c0.15,0,0.3-0.07,0.3-0.3
		C34.62,32.01,34.47,31.79,34.25,31.79z"/>
	<path class="st0" d="M31.2,30.53c0.07,0.22,0.07,0.59,0.07,0.89h0.82c0-0.3-0.07-0.67-0.15-0.89c-0.15-0.07-0.3-0.15-0.37-0.22
		C31.43,30.38,31.28,30.45,31.2,30.53z"/>
	<path class="st0" d="M32.47,28.6c-0.59-0.07-0.82-0.59-1.63-0.67c-0.74-0.07-1.11,0.52-0.82,1.19c0.07,0.15,0.15,0.22,0.22,0.3
		c0.07,0.07,0.07,0.07,0,0.07h0.45l0.37-0.22c0.07,0,0.07-0.07,0.15-0.15c0.15-0.15,0.07-0.3,0.07-0.45
		c0.07,0.15,0.15,0.37,0.15,0.67h0.15l0.07,0.07c0.15-0.15,0.52-0.15,0.82-0.15V28.6z"/>
	<path class="st0" d="M31.43,25.93h3.49v-0.96h-2.82c-0.45-2.15-1.41-4.15-2.89-5.64c-1.34-1.41-3.04-2.37-4.82-2.67l-0.15,0.96
		c1.63,0.3,3.12,1.19,4.45,2.45C30.17,21.62,31.13,23.7,31.43,25.93z"/>
	<path class="st0" d="M30.24,27.48h4.15v-1.11h-3.41c-0.3-4.15-3.19-7.57-6.75-8.24l-0.15,0.96C27.57,19.77,30.24,23.25,30.24,27.48
		z"/>
	<path class="st0" d="M22.89,19.99c-3.56,0-6.53,3.41-6.53,7.57h13.06C29.42,23.4,26.53,19.99,22.89,19.99z M22.23,26.3h-4.67
		c0.37-2.67,2.37-4.75,4.67-5.05V26.3z M23.64,21.32c2.45,0.3,4.3,2.37,4.67,5.05h-4.67V21.32z"/>
	<path class="st0" d="M33.65,27.85h-1.93c0.15,0.07,0.22,0.15,0.3,0.22c0.15,0.22,0.3,0.3,0.52,0.3h0.15c0.3,0,0.37-0.15,0.67-0.3
		L33.65,27.85z"/>
	<rect x="10.88" y="47.52" class="st0" width="4.67" height="2.45"/>
	<path class="st0" d="M14.81,26.44h-3.41v1.11h4.15c0-4.23,2.67-7.79,6.16-8.38l-0.07-1.04C18.07,18.8,15.18,22.22,14.81,26.44z"/>
	<path class="st0" d="M16.37,49.89h13.06V28.3H16.37V49.89z M26.23,29.49h2.08v4.45h-2.08V29.49z M26.23,34.46h2.08v4.38h-2.08
		V34.46z M26.23,39.35h2.08v4.45h-2.08V39.35z M26.23,44.33h2.08v4.38h-2.08V44.33z M23.64,29.49h2.08v4.45h-2.08V29.49z
		 M23.64,34.46h2.08v4.38h-2.08V34.46z M23.64,39.35h2.08v4.45h-2.08V39.35z M23.64,44.33h2.08v4.38h-2.08V44.33z M20.15,29.49h2.08
		v4.45h-2.08V29.49z M20.15,34.46h2.08v4.38h-2.08V34.46z M20.15,39.43h2.08v4.38h-2.08V39.43z M20.15,44.33h2.08v4.38h-2.08V44.33z
		 M17.55,29.49h2.08v4.45h-2.08V29.49z M17.55,34.46h2.08v4.38h-2.08V34.46z M17.55,39.43h2.08v4.38h-2.08V39.43z M17.55,44.33h2.08
		v4.38h-2.08V44.33z"/>
	<path class="st0" d="M32.69,29.63c-0.52,0-0.89,0-0.89,0.3c0,0.22,0.74,0.3,0.89,0.52c0.15-0.15,0.89-0.3,0.89-0.52
		C33.58,29.71,33.21,29.63,32.69,29.63z"/>
	<polygon class="st0" points="23.71,19.1 24.16,15.17 21.71,15.17 22.23,19.1 	"/>
	<polygon class="st0" points="14.96,46.63 11.47,46.63 10.88,47.22 15.55,47.22 	"/>
	<path class="st0" d="M33.36,30.45c-0.07,0.3-0.07,0.67-0.15,0.89h0.82c0-0.3,0.07-0.67,0.07-0.89c-0.15-0.07-0.3-0.15-0.37-0.22
		C33.58,30.38,33.5,30.45,33.36,30.45z"/>
	<path class="st0" d="M30.14,18.51c-0.3,0.22,0.3,0.96,0.82,0.82c-0.52-0.52,0.89-0.88,1.26-0.88c-0.67,0.31-1.49,1.17-0.61,1.22
		c-0.5,0.5,1.19,1.71,1.8,1.93c0,0.03,0,0.06,0.01,0.1c0.2,0.26,0.91,0.53,0.56,0.84c0-0.21-0.46-0.55-0.78-0.62
		c-1.06-0.24-1.26,1.32-0.37,1.93c0.36,0.24,1.19,0.4,1.34,0c-0.74,0.02-1.14-0.6-1.11-0.95c0.65,1.2,1.7,0.58,1.7,0.58
		c-0.3,0-0.37-0.15-0.37-0.45c-0.22,0.22-0.52,0-0.67-0.22c0.24,0.12,0.39,0.05,0.64,0.02c0.18-0.23,0.24-0.57,0.01-0.96
		c0,0,0.62,0.04,0.76-0.61c-0.27,0.04-0.4-0.27-0.3-0.59c-0.33,0.09-0.46-0.14-0.45-0.16c-0.23,0.09-0.73,0.52-0.73,0.68
		c0.16,0.09,0.55,0.07,0.55,0.07c-0.46,0.26-1.02-0.1-1.02-0.1c0-0.15,0.14-0.19,0.23-0.03c0.01-0.45,1.52-1.33,0.02-1.43
		c0.22,0.37-0.34-0.02,0,0c-0.14-0.22-0.15-0.45,0-0.59l-0.52,0.3c0.3-0.3,0.37-0.67,0.3-1.04c-0.22,0.15-0.22,0.3-0.22,0.52
		c-0.67-0.22-0.59,0.74-0.59,1.11c0,0.22-0.74-0.11-0.59-0.33c0.3,0,0.52-0.12,0.3-0.49c0.12-0.41,1.37-1.08,1.25-1.68
		c-0.06-0.28-0.31-0.48-0.57-0.46c0,0,0,0-0.01,0c0,0,0,0,0,0c-0.41,0-0.78,0.66-0.12,0.66c-0.37,0.15-0.59,0.07-0.82-0.22
		c0,0.49,0.47,0.66,0.79,0.49c-0.16,0.25-0.76,0.28-1.14,0.14c0-0.37-0.57-0.48-0.79-0.48V17.1c-0.22-0.15-1.39,0.57,0.18,1.17
		c-0.21-0.07-0.87-0.15-1.15-0.43c-0.07,0.14-0.06,0.28,0.07,0.37c-0.82-0.04-0.19-1.36-1.04-1.41c0,0,0.67-0.59,0.3-0.59
		c-0.07-0.21,0.27-0.47,0.43-0.19c0.36-0.1,0.09,0.77,0.61,0.41c0,0.3-0.57,0.33-0.59,0.07c-0.22,0.38,0.52,0.45,0.82,0.15
		c0.3-0.3,0.15-0.74-0.22-0.96c-0.67-0.3-1.41-0.15-1.78,0.45C28.28,16.8,28.8,18.36,30.14,18.51z M32.88,20.09
		c0.08,0.11,0.2,0.21,0.35,0.26c-0.04,0.05-0.09,0.11-0.13,0.16c-0.1,0.03-0.19,0.08-0.27,0.15c-0.07-0.05-0.15-0.11-0.22-0.17
		C32.76,20.4,32.85,20.26,32.88,20.09z"/>
	<path class="st0" d="M37.26,17.32c-0.01,0-0.04,0-0.07,0c-0.82,0,0,1.04,0.82,0.74c0.74-0.3,0.67-1.26,0.07-1.71
		c-0.89-0.59-1.48,0-2.3,0c-0.07-0.22-0.22-0.37-0.45-0.22c-0.15,0.15,0.11,0.26,0.18,0.26c0,0-0.2,0.54-0.7,0.15
		c0.58-0.18,0.39-0.58,0.23-0.7c0.67,0.02,0.39-0.9-0.14-0.56c-0.63,0.4-0.81-0.02-1.16,0.26c-0.46,0.37,0.32,1.11,0.32,1.41
		c0,0-0.87-0.46-0.63-0.68c-0.45-0.15-0.87-0.08-0.75-0.25c-0.96-0.23-1.36,0.5-1.37,0.11c-0.45,0.3-0.74,1.19,0,1.56
		c-0.43-0.91,2.76-1.45,2.52,0.3c-0.15-0.07-0.22-0.07-0.3-0.07c0.15,0.07,0.22,0.22,0.15,0.37c-0.07,0-0.45,0.15-0.37,0.45
		c-0.05,0.15,0.5-0.27,0.37,0c0.29,0.1,0.17-0.44,0.79-0.27c0,0-0.72,0.32-0.54,0.74c0.14,0.34,0.58,0.34,0.58,0.34
		c-0.18,0.28-0.19,0.45-0.13,0.73c0.44-0.6,0.72,0.09,0.57,0.31c0.89,0,0.22,1.26-0.15,1.63l0.3,0.07c0.15-0.07,0.17-0.04,0.32-0.19
		c-0.11-0.24,0.01-0.36,0.17-0.42c0.15-0.06,0.6-0.13,0.71-0.16c0.87-0.22,1.45-0.77,1.56-1.12c-1.4,1.19-2.81-0.27-1.86-0.34
		c-0.22,0.15,0.66,0.69,0.73-0.2c-0.45-0.15-0.81-0.32-1.18-0.24V19.4c0.15,0,0.48-0.04,0.63,0.04c0.18-0.4-0.08-0.53-0.46-0.49
		c0.32-0.09,0.8-0.07,0.72,0.48c0.48-0.27,0.48,0.67,0.41,1.11c0.21,0.12,0.54,0.07,1.08-0.32c0.02,0.03,0.11,0.23,0.1,0.27
		c0.1-0.16,0.03-0.48-0.1-0.64c1.56-0.79-2.28-1.83-1.27-2.63c0.72-0.57,1.53,0.58,0.83,0.63C37.55,17.62,37.48,17.47,37.26,17.32z
		 M34.38,17.9c0-0.07,0-0.14,0-0.2l0.21,0.11v-0.78c0.18,0.12,0.37,0.18,0.55,0.18c0.03,0,0.06,0,0.08,0
		c-0.12,0.39-0.01,0.71,0.16,0.95l-0.78-0.21C34.53,17.92,34.46,17.91,34.38,17.9z M35.55,18.87h-0.53v0.15l-0.47-0.01
		c0.04-0.03,0.09-0.06,0.14-0.08l0.9-0.41l0.07,0.34C35.66,18.87,35.55,18.87,35.55,18.87z M36.2,17.29
		c-0.42,0.84,1.19,1.48,1.28,1.96c-0.45,0.37,0.07,0.45,0.3,0.45c0,0.36-0.55,0.73-0.58,0.36c-0.01-0.08,0.15-1.28-0.53-1.03
		c0-0.89-1.37-0.98-0.83-1.87c0.37-0.62,1.34-1,2.09-0.06C37.04,16.55,36.43,16.83,36.2,17.29z"/>
	<path class="st0" d="M37.11,24.96c-0.74,0.22-0.15,1.48,0.67,0.52c0,1.04-1.48,0.74-1.34-0.15c0.03-0.24,0.2-0.41,0.39-0.54
		c1.89-1.35,1.12-2.48-0.53-2.8c0,0.04,0,0.08,0,0.11c-0.02,0-0.05,0.01-0.08,0.04c0-0.42-0.11-0.54-0.41-0.42
		c-0.12,0.07-0.19,0.14-0.25,0.27c0.26-0.01,0.3,0.16,0.33,0.33c-0.56-0.18-1.19,0.8-0.29,0.8c-0.46,0.19-0.74,0.09-1.02-0.28
		c0,0.93,1.85,0.56,1.67-0.19c-0.02-0.03-0.03-0.05-0.05-0.07c0.24-0.41,1.13,0.03,1.02,0.54c-0.02-0.1-0.14-0.16-0.4-0.16
		c-0.07,0.45-0.37,0.74-0.89,0.89c-0.52,0.07-0.82,0.45,0,0.37c0.17-0.02,0.44-0.17,0.69-0.35c-0.23,0.25-0.41,0.47-0.24,0.57
		l-0.45,0.15c-1.1,1.1,1.36,2.89,2.15,1.41C38.46,25.27,37.71,24.79,37.11,24.96z M37.29,23.24l0.12,0
		c0.03,0.22-0.16,0.53-0.53,0.85l-0.09-0.1C37.07,23.76,37.21,23.49,37.29,23.24z"/>
	<path class="st0" d="M14.53,18.09c-0.38,0.14-0.98,0.11-1.14-0.14c0.32,0.16,0.79,0,0.79-0.49c-0.22,0.3-0.45,0.37-0.82,0.22
		c0.66,0,0.3-0.66-0.12-0.66c0,0,0,0,0,0c0,0,0,0-0.01,0c-0.26-0.02-0.52,0.19-0.57,0.46c-0.12,0.61,1.13,1.28,1.25,1.68
		c-0.22,0.37,0,0.49,0.3,0.49c0.15,0.22-0.59,0.55-0.59,0.33c0-0.37,0.07-1.34-0.59-1.11c0-0.22,0-0.37-0.22-0.52
		c-0.07,0.37,0,0.74,0.3,1.04l-0.52-0.3c0.15,0.15,0.14,0.38,0,0.59c0.34-0.02-0.22,0.37,0,0c-1.5,0.1,0.01,0.97,0.02,1.43
		c0.09-0.16,0.23-0.12,0.23,0.03c0,0-0.56,0.36-1.02,0.1c0,0,0.39,0.02,0.55-0.07c0-0.17-0.51-0.6-0.73-0.68
		c0.01,0.03-0.13,0.26-0.45,0.16c0.11,0.33-0.02,0.63-0.3,0.59c0.13,0.65,0.76,0.61,0.76,0.61c-0.23,0.4-0.17,0.74,0.01,0.96
		c0.25,0.03,0.4,0.11,0.64-0.02c-0.15,0.22-0.45,0.45-0.67,0.22c0,0.3-0.07,0.45-0.37,0.45c0,0,1.05,0.62,1.7-0.58
		c0.03,0.35-0.37,0.97-1.11,0.95c0.15,0.4,0.98,0.24,1.34,0c0.89-0.6,0.69-2.17-0.37-1.93c-0.32,0.07-0.78,0.41-0.78,0.62
		c-0.36-0.31,0.36-0.58,0.56-0.84c0.01-0.04,0-0.07,0.01-0.1c0.6-0.23,2.29-1.44,1.8-1.93c0.88-0.05,0.06-0.91-0.61-1.22
		c0.37,0,1.78,0.36,1.26,0.88c0.52,0.15,1.11-0.59,0.82-0.82c1.34-0.15,1.85-1.71,1.85-2.37c-0.37-0.59-1.11-0.74-1.78-0.45
		c-0.37,0.22-0.52,0.67-0.22,0.96c0.3,0.3,1.04,0.23,0.82-0.15c-0.03,0.26-0.59,0.22-0.59-0.07c0.52,0.36,0.25-0.51,0.61-0.41
		c0.16-0.28,0.5-0.03,0.43,0.19c-0.37,0,0.3,0.59,0.3,0.59c-0.85,0.05-0.22,1.37-1.04,1.41c0.14-0.09,0.15-0.23,0.07-0.37
		c-0.28,0.28-0.94,0.36-1.15,0.43c1.57-0.6,0.4-1.32,0.18-1.17v0.52C15.1,17.62,14.53,17.72,14.53,18.09z M13.15,20.66
		c-0.07-0.07-0.17-0.12-0.27-0.15c-0.04-0.06-0.08-0.11-0.13-0.16c0.13-0.05,0.26-0.14,0.35-0.26c0.03,0.16,0.12,0.3,0.25,0.4
		c0,0,0.01,0,0.01,0.01C13.3,20.55,13.22,20.6,13.15,20.66z"/>
	<path class="st0" d="M9.61,24.44c0.16-0.1-0.01-0.32-0.24-0.57c0.25,0.18,0.52,0.32,0.69,0.35c0.82,0.07,0.52-0.3,0-0.37
		c-0.52-0.15-0.82-0.45-0.89-0.89c-0.26,0-0.37,0.07-0.4,0.16c-0.11-0.51,0.78-0.95,1.02-0.54c-0.02,0.02-0.03,0.04-0.05,0.07
		c-0.18,0.74,1.67,1.11,1.67,0.19c-0.28,0.37-0.56,0.46-1.02,0.28c0.9,0,0.28-0.98-0.29-0.8c0.03-0.17,0.07-0.33,0.33-0.33
		c-0.07-0.13-0.14-0.2-0.25-0.27c-0.31-0.12-0.41,0-0.41,0.42c-0.03-0.03-0.06-0.04-0.08-0.04c0-0.03,0-0.07,0-0.11
		c-1.65,0.32-2.42,1.45-0.53,2.8c0.18,0.13,0.35,0.29,0.39,0.54c0.15,0.89-1.34,1.19-1.34,0.15c0.82,0.96,1.41-0.3,0.67-0.52
		C8.27,24.79,7.52,25.27,7.91,26c0.79,1.48,3.25-0.31,2.15-1.41L9.61,24.44z M9.11,24.09c-0.37-0.32-0.56-0.63-0.53-0.85l0.12,0
		c0.07,0.25,0.22,0.53,0.5,0.76L9.11,24.09z"/>
	<path class="st0" d="M7.96,20.48c-0.01-0.04,0.07-0.24,0.1-0.27c0.53,0.39,0.87,0.43,1.08,0.32c-0.07-0.45-0.08-1.38,0.41-1.11
		c-0.08-0.55,0.39-0.57,0.72-0.48c-0.37-0.04-0.64,0.09-0.46,0.49c0.15-0.07,0.48-0.04,0.63-0.04v0.22
		c-0.37-0.07-0.73,0.09-1.18,0.24c0.07,0.89,0.96,0.35,0.73,0.2c0.95,0.07-0.47,1.53-1.86,0.34c0.11,0.35,0.69,0.9,1.56,1.12
		c0.11,0.03,0.56,0.1,0.71,0.16c0.16,0.07,0.28,0.19,0.17,0.42c0.15,0.15,0.17,0.11,0.32,0.19l0.3-0.07
		c-0.37-0.37-1.04-1.63-0.15-1.63c-0.15-0.22,0.13-0.92,0.57-0.31c0.06-0.28,0.04-0.46-0.13-0.73c0,0,0.44-0.01,0.58-0.34
		c0.17-0.43-0.54-0.74-0.54-0.74c0.61-0.16,0.49,0.37,0.79,0.27c-0.13-0.27,0.42,0.15,0.37,0c0.07-0.3-0.3-0.45-0.37-0.45
		c-0.07-0.15,0-0.3,0.15-0.37c-0.07,0-0.15,0-0.3,0.07c-0.24-1.75,2.95-1.2,2.52-0.3c0.74-0.37,0.45-1.26,0-1.56
		c-0.01,0.39-0.4-0.34-1.37-0.11c0.12,0.17-0.3,0.1-0.75,0.25c0.24,0.22-0.63,0.68-0.63,0.68c0-0.3,0.78-1.04,0.32-1.41
		c-0.35-0.28-0.53,0.14-1.16-0.26c-0.53-0.33-0.81,0.59-0.14,0.56c-0.16,0.12-0.35,0.52,0.23,0.7c-0.5,0.39-0.7-0.15-0.7-0.15
		c0.07,0,0.33-0.12,0.18-0.26c-0.22-0.15-0.37,0-0.45,0.22c-0.82,0-1.41-0.59-2.3,0c-0.59,0.45-0.67,1.41,0.07,1.71
		c0.82,0.3,1.63-0.74,0.82-0.74c-0.04,0-0.06,0-0.07,0c-0.22,0.15-0.3,0.3-0.22,0.52c-0.7-0.05,0.11-1.2,0.83-0.63
		c1.01,0.81-2.83,1.84-1.27,2.63C7.93,20,7.86,20.32,7.96,20.48z M11.63,15.99c0.06,0,0.12,0,0.17-0.01
		c-0.03,0.06-0.06,0.12-0.1,0.18l-0.22-0.07C11.49,16.09,11.63,15.99,11.63,15.99z M10.75,17.21c0.03,0,0.06,0,0.08,0
		c0.19,0,0.37-0.06,0.55-0.18v0.78l0.21-0.11c0,0.06,0,0.13,0,0.2c-0.07,0.01-0.15,0.02-0.24,0.04l-0.78,0.21
		C10.76,17.91,10.87,17.6,10.75,17.21z M10.37,18.53l0.92,0.4c0.04,0.02,0.09,0.05,0.14,0.08l-0.47,0.03v-0.17h-0.53
		c0,0-0.14-0.01-0.16-0.01L10.37,18.53z M8.5,19.25c0.09-0.48,1.7-1.11,1.28-1.96c-0.23-0.46-0.84-0.74-1.72-0.19
		c0.75-0.94,1.72-0.57,2.09,0.06c0.54,0.89-0.83,0.98-0.83,1.87c-0.68-0.25-0.52,0.95-0.53,1.03c-0.04,0.37-0.58,0-0.58-0.36
		C8.43,19.69,8.95,19.62,8.5,19.25z"/>
</g>
</svg>
